<?xml version="1.0" encoding="utf-8"?>
<svg xmlns="http://www.w3.org/2000/svg"
    xmlns:xlink="http://www.w3.org/1999/xlink"
    width="1020" height="1020" viewBox="-10 -10 1020 1020">
<defs>
<style type="text/css"><![CDATA[
line {
    stroke: #000000;
    stroke-linecap: square;
    stroke-width: 5;
}
]]></style>
</defs>
<line x1="25.0" y1="0.0" x2="25.0" y2="25.0"/>
<circle cx="12.5" cy="12.5" r="10.0" fill="Blue" />
<line x1="0.0" y1="50.0" x2="25.0" y2="50.0"/>
<line x1="25.0" y1="50.0" x2="25.0" y2="75.0"/>
<line x1="25.0" y1="100.0" x2="25.0" y2="125.0"/>
<line x1="25.0" y1="125.0" x2="25.0" y2="150.0"/>
<line x1="0.0" y1="200.0" x2="25.0" y2="200.0"/>
<line x1="25.0" y1="200.0" x2="25.0" y2="225.0"/>
<line x1="0.0" y1="275.0" x2="25.0" y2="275.0"/>
<line x1="25.0" y1="250.0" x2="25.0" y2="275.0"/>
<line x1="25.0" y1="300.0" x2="25.0" y2="325.0"/>
<line x1="25.0" y1="325.0" x2="25.0" y2="350.0"/>
<line x1="0.0" y1="375.0" x2="25.0" y2="375.0"/>
<line x1="25.0" y1="425.0" x2="25.0" y2="450.0"/>
<line x1="0.0" y1="475.0" x2="25.0" y2="475.0"/>
<line x1="25.0" y1="475.0" x2="25.0" y2="500.0"/>
<line x1="25.0" y1="500.0" x2="25.0" y2="525.0"/>
<line x1="25.0" y1="525.0" x2="25.0" y2="550.0"/>
<line x1="25.0" y1="550.0" x2="25.0" y2="575.0"/>
<line x1="0.0" y1="625.0" x2="25.0" y2="625.0"/>
<line x1="0.0" y1="675.0" x2="25.0" y2="675.0"/>
<line x1="25.0" y1="675.0" x2="25.0" y2="700.0"/>
<line x1="25.0" y1="700.0" x2="25.0" y2="725.0"/>
<line x1="0.0" y1="775.0" x2="25.0" y2="775.0"/>
<line x1="25.0" y1="750.0" x2="25.0" y2="775.0"/>
<line x1="25.0" y1="800.0" x2="25.0" y2="825.0"/>
<line x1="25.0" y1="825.0" x2="25.0" y2="850.0"/>
<line x1="25.0" y1="875.0" x2="25.0" y2="900.0"/>
<line x1="25.0" y1="900.0" x2="25.0" y2="925.0"/>
<line x1="0.0" y1="950.0" x2="25.0" y2="950.0"/>
<line x1="25.0" y1="950.0" x2="25.0" y2="975.0"/>
<line x1="0.0" y1="1000.0" x2="25.0" y2="1000.0"/>
<line x1="25.0" y1="25.0" x2="50.0" y2="25.0"/>
<line x1="50.0" y1="25.0" x2="50.0" y2="50.0"/>
<line x1="25.0" y1="75.0" x2="50.0" y2="75.0"/>
<line x1="25.0" y1="100.0" x2="50.0" y2="100.0"/>
<line x1="50.0" y1="75.0" x2="50.0" y2="100.0"/>
<line x1="25.0" y1="150.0" x2="50.0" y2="150.0"/>
<line x1="25.0" y1="175.0" x2="50.0" y2="175.0"/>
<line x1="25.0" y1="200.0" x2="50.0" y2="200.0"/>
<line x1="25.0" y1="250.0" x2="50.0" y2="250.0"/>
<line x1="50.0" y1="225.0" x2="50.0" y2="250.0"/>
<line x1="50.0" y1="275.0" x2="50.0" y2="300.0"/>
<line x1="50.0" y1="300.0" x2="50.0" y2="325.0"/>
<line x1="25.0" y1="350.0" x2="50.0" y2="350.0"/>
<line x1="50.0" y1="325.0" x2="50.0" y2="350.0"/>
<line x1="25.0" y1="375.0" x2="50.0" y2="375.0"/>
<line x1="25.0" y1="400.0" x2="50.0" y2="400.0"/>
<line x1="50.0" y1="400.0" x2="50.0" y2="425.0"/>
<line x1="25.0" y1="450.0" x2="50.0" y2="450.0"/>
<line x1="50.0" y1="450.0" x2="50.0" y2="475.0"/>
<line x1="50.0" y1="475.0" x2="50.0" y2="500.0"/>
<line x1="50.0" y1="500.0" x2="50.0" y2="525.0"/>
<line x1="25.0" y1="550.0" x2="50.0" y2="550.0"/>
<line x1="25.0" y1="600.0" x2="50.0" y2="600.0"/>
<line x1="50.0" y1="575.0" x2="50.0" y2="600.0"/>
<line x1="50.0" y1="600.0" x2="50.0" y2="625.0"/>
<line x1="25.0" y1="650.0" x2="50.0" y2="650.0"/>
<line x1="50.0" y1="625.0" x2="50.0" y2="650.0"/>
<line x1="50.0" y1="650.0" x2="50.0" y2="675.0"/>
<line x1="50.0" y1="675.0" x2="50.0" y2="700.0"/>
<line x1="50.0" y1="700.0" x2="50.0" y2="725.0"/>
<line x1="25.0" y1="750.0" x2="50.0" y2="750.0"/>
<line x1="25.0" y1="800.0" x2="50.0" y2="800.0"/>
<line x1="50.0" y1="775.0" x2="50.0" y2="800.0"/>
<line x1="25.0" y1="850.0" x2="50.0" y2="850.0"/>
<line x1="50.0" y1="825.0" x2="50.0" y2="850.0"/>
<line x1="50.0" y1="850.0" x2="50.0" y2="875.0"/>
<line x1="25.0" y1="900.0" x2="50.0" y2="900.0"/>
<line x1="25.0" y1="925.0" x2="50.0" y2="925.0"/>
<line x1="25.0" y1="950.0" x2="50.0" y2="950.0"/>
<line x1="25.0" y1="1000.0" x2="50.0" y2="1000.0"/>
<line x1="50.0" y1="975.0" x2="50.0" y2="1000.0"/>
<circle cx="37.5" cy="987.5" r="10.0" fill="Green" />
<line x1="50.0" y1="50.0" x2="75.0" y2="50.0"/>
<line x1="75.0" y1="25.0" x2="75.0" y2="50.0"/>
<line x1="75.0" y1="50.0" x2="75.0" y2="75.0"/>
<line x1="75.0" y1="75.0" x2="75.0" y2="100.0"/>
<line x1="50.0" y1="125.0" x2="75.0" y2="125.0"/>
<line x1="75.0" y1="100.0" x2="75.0" y2="125.0"/>
<line x1="75.0" y1="125.0" x2="75.0" y2="150.0"/>
<line x1="50.0" y1="175.0" x2="75.0" y2="175.0"/>
<line x1="75.0" y1="150.0" x2="75.0" y2="175.0"/>
<line x1="50.0" y1="200.0" x2="75.0" y2="200.0"/>
<circle cx="62.5" cy="187.5" r="10.0" fill="Red" />
<line x1="75.0" y1="225.0" x2="75.0" y2="250.0"/>
<line x1="75.0" y1="250.0" x2="75.0" y2="275.0"/>
<line x1="50.0" y1="300.0" x2="75.0" y2="300.0"/>
<line x1="75.0" y1="325.0" x2="75.0" y2="350.0"/>
<line x1="50.0" y1="375.0" x2="75.0" y2="375.0"/>
<line x1="75.0" y1="350.0" x2="75.0" y2="375.0"/>
<line x1="50.0" y1="400.0" x2="75.0" y2="400.0"/>
<line x1="50.0" y1="450.0" x2="75.0" y2="450.0"/>
<line x1="75.0" y1="425.0" x2="75.0" y2="450.0"/>
<line x1="50.0" y1="475.0" x2="75.0" y2="475.0"/>
<line x1="50.0" y1="525.0" x2="75.0" y2="525.0"/>
<line x1="75.0" y1="525.0" x2="75.0" y2="550.0"/>
<line x1="50.0" y1="575.0" x2="75.0" y2="575.0"/>
<line x1="75.0" y1="550.0" x2="75.0" y2="575.0"/>
<line x1="75.0" y1="600.0" x2="75.0" y2="625.0"/>
<line x1="50.0" y1="675.0" x2="75.0" y2="675.0"/>
<line x1="75.0" y1="650.0" x2="75.0" y2="675.0"/>
<line x1="50.0" y1="725.0" x2="75.0" y2="725.0"/>
<line x1="50.0" y1="750.0" x2="75.0" y2="750.0"/>
<line x1="50.0" y1="775.0" x2="75.0" y2="775.0"/>
<line x1="75.0" y1="775.0" x2="75.0" y2="800.0"/>
<line x1="50.0" y1="825.0" x2="75.0" y2="825.0"/>
<line x1="75.0" y1="850.0" x2="75.0" y2="875.0"/>
<line x1="50.0" y1="900.0" x2="75.0" y2="900.0"/>
<line x1="75.0" y1="875.0" x2="75.0" y2="900.0"/>
<line x1="50.0" y1="925.0" x2="75.0" y2="925.0"/>
<line x1="50.0" y1="950.0" x2="75.0" y2="950.0"/>
<line x1="75.0" y1="950.0" x2="75.0" y2="975.0"/>
<line x1="50.0" y1="1000.0" x2="75.0" y2="1000.0"/>
<line x1="100.0" y1="50.0" x2="100.0" y2="75.0"/>
<line x1="75.0" y1="100.0" x2="100.0" y2="100.0"/>
<line x1="75.0" y1="175.0" x2="100.0" y2="175.0"/>
<line x1="75.0" y1="200.0" x2="100.0" y2="200.0"/>
<line x1="75.0" y1="225.0" x2="100.0" y2="225.0"/>
<line x1="100.0" y1="200.0" x2="100.0" y2="225.0"/>
<line x1="75.0" y1="275.0" x2="100.0" y2="275.0"/>
<line x1="75.0" y1="300.0" x2="100.0" y2="300.0"/>
<line x1="100.0" y1="300.0" x2="100.0" y2="325.0"/>
<line x1="100.0" y1="325.0" x2="100.0" y2="350.0"/>
<line x1="100.0" y1="350.0" x2="100.0" y2="375.0"/>
<line x1="75.0" y1="400.0" x2="100.0" y2="400.0"/>
<line x1="100.0" y1="375.0" x2="100.0" y2="400.0"/>
<line x1="75.0" y1="425.0" x2="100.0" y2="425.0"/>
<line x1="75.0" y1="450.0" x2="100.0" y2="450.0"/>
<line x1="75.0" y1="500.0" x2="100.0" y2="500.0"/>
<line x1="100.0" y1="475.0" x2="100.0" y2="500.0"/>
<line x1="100.0" y1="500.0" x2="100.0" y2="525.0"/>
<line x1="100.0" y1="525.0" x2="100.0" y2="550.0"/>
<line x1="100.0" y1="550.0" x2="100.0" y2="575.0"/>
<line x1="100.0" y1="575.0" x2="100.0" y2="600.0"/>
<line x1="75.0" y1="625.0" x2="100.0" y2="625.0"/>
<line x1="100.0" y1="625.0" x2="100.0" y2="650.0"/>
<line x1="100.0" y1="650.0" x2="100.0" y2="675.0"/>
<line x1="75.0" y1="700.0" x2="100.0" y2="700.0"/>
<line x1="100.0" y1="675.0" x2="100.0" y2="700.0"/>
<line x1="100.0" y1="700.0" x2="100.0" y2="725.0"/>
<line x1="75.0" y1="750.0" x2="100.0" y2="750.0"/>
<line x1="100.0" y1="725.0" x2="100.0" y2="750.0"/>
<line x1="75.0" y1="775.0" x2="100.0" y2="775.0"/>
<line x1="75.0" y1="825.0" x2="100.0" y2="825.0"/>
<line x1="75.0" y1="850.0" x2="100.0" y2="850.0"/>
<line x1="75.0" y1="875.0" x2="100.0" y2="875.0"/>
<line x1="100.0" y1="900.0" x2="100.0" y2="925.0"/>
<line x1="100.0" y1="925.0" x2="100.0" y2="950.0"/>
<line x1="75.0" y1="975.0" x2="100.0" y2="975.0"/>
<line x1="75.0" y1="1000.0" x2="100.0" y2="1000.0"/>
<line x1="100.0" y1="25.0" x2="125.0" y2="25.0"/>
<line x1="100.0" y1="50.0" x2="125.0" y2="50.0"/>
<line x1="125.0" y1="50.0" x2="125.0" y2="75.0"/>
<line x1="100.0" y1="100.0" x2="125.0" y2="100.0"/>
<line x1="125.0" y1="75.0" x2="125.0" y2="100.0"/>
<line x1="100.0" y1="125.0" x2="125.0" y2="125.0"/>
<line x1="100.0" y1="150.0" x2="125.0" y2="150.0"/>
<line x1="100.0" y1="175.0" x2="125.0" y2="175.0"/>
<line x1="125.0" y1="150.0" x2="125.0" y2="175.0"/>
<line x1="100.0" y1="200.0" x2="125.0" y2="200.0"/>
<line x1="100.0" y1="250.0" x2="125.0" y2="250.0"/>
<line x1="125.0" y1="225.0" x2="125.0" y2="250.0"/>
<line x1="100.0" y1="275.0" x2="125.0" y2="275.0"/>
<line x1="125.0" y1="275.0" x2="125.0" y2="300.0"/>
<line x1="100.0" y1="325.0" x2="125.0" y2="325.0"/>
<line x1="100.0" y1="350.0" x2="125.0" y2="350.0"/>
<line x1="125.0" y1="375.0" x2="125.0" y2="400.0"/>
<line x1="100.0" y1="425.0" x2="125.0" y2="425.0"/>
<line x1="125.0" y1="400.0" x2="125.0" y2="425.0"/>
<line x1="100.0" y1="475.0" x2="125.0" y2="475.0"/>
<line x1="125.0" y1="450.0" x2="125.0" y2="475.0"/>
<line x1="100.0" y1="525.0" x2="125.0" y2="525.0"/>
<line x1="125.0" y1="500.0" x2="125.0" y2="525.0"/>
<line x1="100.0" y1="575.0" x2="125.0" y2="575.0"/>
<line x1="125.0" y1="575.0" x2="125.0" y2="600.0"/>
<line x1="125.0" y1="600.0" x2="125.0" y2="625.0"/>
<line x1="125.0" y1="625.0" x2="125.0" y2="650.0"/>
<line x1="100.0" y1="675.0" x2="125.0" y2="675.0"/>
<line x1="125.0" y1="700.0" x2="125.0" y2="725.0"/>
<line x1="125.0" y1="725.0" x2="125.0" y2="750.0"/>
<line x1="100.0" y1="775.0" x2="125.0" y2="775.0"/>
<line x1="125.0" y1="750.0" x2="125.0" y2="775.0"/>
<line x1="100.0" y1="800.0" x2="125.0" y2="800.0"/>
<line x1="100.0" y1="825.0" x2="125.0" y2="825.0"/>
<line x1="125.0" y1="800.0" x2="125.0" y2="825.0"/>
<line x1="100.0" y1="850.0" x2="125.0" y2="850.0"/>
<line x1="125.0" y1="850.0" x2="125.0" y2="875.0"/>
<line x1="100.0" y1="900.0" x2="125.0" y2="900.0"/>
<line x1="125.0" y1="875.0" x2="125.0" y2="900.0"/>
<line x1="100.0" y1="950.0" x2="125.0" y2="950.0"/>
<line x1="125.0" y1="950.0" x2="125.0" y2="975.0"/>
<line x1="100.0" y1="1000.0" x2="125.0" y2="1000.0"/>
<line x1="125.0" y1="975.0" x2="125.0" y2="1000.0"/>
<line x1="125.0" y1="25.0" x2="150.0" y2="25.0"/>
<line x1="150.0" y1="0.0" x2="150.0" y2="25.0"/>
<line x1="150.0" y1="25.0" x2="150.0" y2="50.0"/>
<line x1="150.0" y1="50.0" x2="150.0" y2="75.0"/>
<line x1="150.0" y1="75.0" x2="150.0" y2="100.0"/>
<line x1="125.0" y1="125.0" x2="150.0" y2="125.0"/>
<line x1="150.0" y1="100.0" x2="150.0" y2="125.0"/>
<line x1="125.0" y1="150.0" x2="150.0" y2="150.0"/>
<line x1="125.0" y1="200.0" x2="150.0" y2="200.0"/>
<line x1="150.0" y1="175.0" x2="150.0" y2="200.0"/>
<line x1="125.0" y1="250.0" x2="150.0" y2="250.0"/>
<line x1="150.0" y1="250.0" x2="150.0" y2="275.0"/>
<line x1="125.0" y1="300.0" x2="150.0" y2="300.0"/>
<line x1="150.0" y1="300.0" x2="150.0" y2="325.0"/>
<line x1="125.0" y1="350.0" x2="150.0" y2="350.0"/>
<line x1="150.0" y1="325.0" x2="150.0" y2="350.0"/>
<line x1="125.0" y1="375.0" x2="150.0" y2="375.0"/>
<line x1="150.0" y1="375.0" x2="150.0" y2="400.0"/>
<line x1="150.0" y1="400.0" x2="150.0" y2="425.0"/>
<line x1="150.0" y1="425.0" x2="150.0" y2="450.0"/>
<line x1="150.0" y1="450.0" x2="150.0" y2="475.0"/>
<line x1="125.0" y1="500.0" x2="150.0" y2="500.0"/>
<line x1="125.0" y1="550.0" x2="150.0" y2="550.0"/>
<line x1="150.0" y1="525.0" x2="150.0" y2="550.0"/>
<line x1="150.0" y1="550.0" x2="150.0" y2="575.0"/>
<line x1="150.0" y1="575.0" x2="150.0" y2="600.0"/>
<line x1="125.0" y1="625.0" x2="150.0" y2="625.0"/>
<line x1="150.0" y1="625.0" x2="150.0" y2="650.0"/>
<line x1="125.0" y1="675.0" x2="150.0" y2="675.0"/>
<line x1="150.0" y1="650.0" x2="150.0" y2="675.0"/>
<line x1="150.0" y1="675.0" x2="150.0" y2="700.0"/>
<line x1="125.0" y1="725.0" x2="150.0" y2="725.0"/>
<line x1="150.0" y1="725.0" x2="150.0" y2="750.0"/>
<line x1="150.0" y1="750.0" x2="150.0" y2="775.0"/>
<line x1="125.0" y1="825.0" x2="150.0" y2="825.0"/>
<line x1="150.0" y1="825.0" x2="150.0" y2="850.0"/>
<line x1="125.0" y1="875.0" x2="150.0" y2="875.0"/>
<line x1="125.0" y1="925.0" x2="150.0" y2="925.0"/>
<line x1="150.0" y1="900.0" x2="150.0" y2="925.0"/>
<line x1="150.0" y1="925.0" x2="150.0" y2="950.0"/>
<line x1="150.0" y1="950.0" x2="150.0" y2="975.0"/>
<line x1="125.0" y1="1000.0" x2="150.0" y2="1000.0"/>
<line x1="175.0" y1="25.0" x2="175.0" y2="50.0"/>
<line x1="150.0" y1="75.0" x2="175.0" y2="75.0"/>
<line x1="175.0" y1="100.0" x2="175.0" y2="125.0"/>
<line x1="150.0" y1="150.0" x2="175.0" y2="150.0"/>
<line x1="150.0" y1="175.0" x2="175.0" y2="175.0"/>
<line x1="175.0" y1="175.0" x2="175.0" y2="200.0"/>
<line x1="150.0" y1="225.0" x2="175.0" y2="225.0"/>
<line x1="175.0" y1="200.0" x2="175.0" y2="225.0"/>
<line x1="150.0" y1="250.0" x2="175.0" y2="250.0"/>
<line x1="150.0" y1="275.0" x2="175.0" y2="275.0"/>
<line x1="175.0" y1="275.0" x2="175.0" y2="300.0"/>
<line x1="175.0" y1="300.0" x2="175.0" y2="325.0"/>
<line x1="150.0" y1="350.0" x2="175.0" y2="350.0"/>
<line x1="175.0" y1="375.0" x2="175.0" y2="400.0"/>
<line x1="175.0" y1="400.0" x2="175.0" y2="425.0"/>
<line x1="175.0" y1="425.0" x2="175.0" y2="450.0"/>
<line x1="150.0" y1="475.0" x2="175.0" y2="475.0"/>
<line x1="150.0" y1="500.0" x2="175.0" y2="500.0"/>
<line x1="175.0" y1="475.0" x2="175.0" y2="500.0"/>
<line x1="175.0" y1="500.0" x2="175.0" y2="525.0"/>
<line x1="150.0" y1="550.0" x2="175.0" y2="550.0"/>
<line x1="175.0" y1="550.0" x2="175.0" y2="575.0"/>
<line x1="150.0" y1="600.0" x2="175.0" y2="600.0"/>
<line x1="175.0" y1="600.0" x2="175.0" y2="625.0"/>
<line x1="150.0" y1="650.0" x2="175.0" y2="650.0"/>
<line x1="150.0" y1="700.0" x2="175.0" y2="700.0"/>
<line x1="175.0" y1="700.0" x2="175.0" y2="725.0"/>
<line x1="175.0" y1="725.0" x2="175.0" y2="750.0"/>
<line x1="150.0" y1="775.0" x2="175.0" y2="775.0"/>
<line x1="150.0" y1="800.0" x2="175.0" y2="800.0"/>
<line x1="175.0" y1="775.0" x2="175.0" y2="800.0"/>
<line x1="175.0" y1="800.0" x2="175.0" y2="825.0"/>
<line x1="150.0" y1="850.0" x2="175.0" y2="850.0"/>
<line x1="175.0" y1="850.0" x2="175.0" y2="875.0"/>
<line x1="150.0" y1="900.0" x2="175.0" y2="900.0"/>
<line x1="175.0" y1="875.0" x2="175.0" y2="900.0"/>
<line x1="175.0" y1="925.0" x2="175.0" y2="950.0"/>
<line x1="150.0" y1="975.0" x2="175.0" y2="975.0"/>
<circle cx="162.5" cy="962.5" r="10.0" fill="Red" />
<line x1="150.0" y1="1000.0" x2="175.0" y2="1000.0"/>
<line x1="175.0" y1="50.0" x2="200.0" y2="50.0"/>
<line x1="175.0" y1="75.0" x2="200.0" y2="75.0"/>
<line x1="200.0" y1="75.0" x2="200.0" y2="100.0"/>
<line x1="175.0" y1="125.0" x2="200.0" y2="125.0"/>
<line x1="175.0" y1="150.0" x2="200.0" y2="150.0"/>
<line x1="200.0" y1="150.0" x2="200.0" y2="175.0"/>
<line x1="175.0" y1="200.0" x2="200.0" y2="200.0"/>
<line x1="175.0" y1="250.0" x2="200.0" y2="250.0"/>
<line x1="200.0" y1="225.0" x2="200.0" y2="250.0"/>
<line x1="175.0" y1="275.0" x2="200.0" y2="275.0"/>
<line x1="200.0" y1="300.0" x2="200.0" y2="325.0"/>
<line x1="175.0" y1="350.0" x2="200.0" y2="350.0"/>
<line x1="200.0" y1="325.0" x2="200.0" y2="350.0"/>
<line x1="200.0" y1="350.0" x2="200.0" y2="375.0"/>
<line x1="200.0" y1="375.0" x2="200.0" y2="400.0"/>
<line x1="175.0" y1="425.0" x2="200.0" y2="425.0"/>
<line x1="175.0" y1="450.0" x2="200.0" y2="450.0"/>
<line x1="175.0" y1="475.0" x2="200.0" y2="475.0"/>
<line x1="200.0" y1="500.0" x2="200.0" y2="525.0"/>
<line x1="175.0" y1="550.0" x2="200.0" y2="550.0"/>
<line x1="200.0" y1="525.0" x2="200.0" y2="550.0"/>
<line x1="200.0" y1="575.0" x2="200.0" y2="600.0"/>
<line x1="175.0" y1="625.0" x2="200.0" y2="625.0"/>
<line x1="200.0" y1="625.0" x2="200.0" y2="650.0"/>
<line x1="175.0" y1="675.0" x2="200.0" y2="675.0"/>
<line x1="200.0" y1="650.0" x2="200.0" y2="675.0"/>
<line x1="200.0" y1="675.0" x2="200.0" y2="700.0"/>
<line x1="175.0" y1="725.0" x2="200.0" y2="725.0"/>
<line x1="175.0" y1="775.0" x2="200.0" y2="775.0"/>
<line x1="200.0" y1="750.0" x2="200.0" y2="775.0"/>
<line x1="175.0" y1="825.0" x2="200.0" y2="825.0"/>
<line x1="200.0" y1="825.0" x2="200.0" y2="850.0"/>
<line x1="200.0" y1="850.0" x2="200.0" y2="875.0"/>
<line x1="200.0" y1="875.0" x2="200.0" y2="900.0"/>
<line x1="175.0" y1="925.0" x2="200.0" y2="925.0"/>
<line x1="175.0" y1="975.0" x2="200.0" y2="975.0"/>
<line x1="200.0" y1="950.0" x2="200.0" y2="975.0"/>
<line x1="175.0" y1="1000.0" x2="200.0" y2="1000.0"/>
<line x1="200.0" y1="25.0" x2="225.0" y2="25.0"/>
<line x1="225.0" y1="0.0" x2="225.0" y2="25.0"/>
<line x1="200.0" y1="50.0" x2="225.0" y2="50.0"/>
<line x1="225.0" y1="50.0" x2="225.0" y2="75.0"/>
<line x1="225.0" y1="75.0" x2="225.0" y2="100.0"/>
<line x1="200.0" y1="125.0" x2="225.0" y2="125.0"/>
<line x1="225.0" y1="100.0" x2="225.0" y2="125.0"/>
<line x1="200.0" y1="150.0" x2="225.0" y2="150.0"/>
<line x1="200.0" y1="175.0" x2="225.0" y2="175.0"/>
<line x1="200.0" y1="200.0" x2="225.0" y2="200.0"/>
<line x1="200.0" y1="225.0" x2="225.0" y2="225.0"/>
<line x1="225.0" y1="225.0" x2="225.0" y2="250.0"/>
<line x1="200.0" y1="275.0" x2="225.0" y2="275.0"/>
<line x1="225.0" y1="275.0" x2="225.0" y2="300.0"/>
<line x1="225.0" y1="300.0" x2="225.0" y2="325.0"/>
<line x1="200.0" y1="350.0" x2="225.0" y2="350.0"/>
<line x1="225.0" y1="350.0" x2="225.0" y2="375.0"/>
<line x1="200.0" y1="400.0" x2="225.0" y2="400.0"/>
<line x1="225.0" y1="400.0" x2="225.0" y2="425.0"/>
<line x1="200.0" y1="450.0" x2="225.0" y2="450.0"/>
<line x1="200.0" y1="475.0" x2="225.0" y2="475.0"/>
<line x1="200.0" y1="500.0" x2="225.0" y2="500.0"/>
<line x1="225.0" y1="500.0" x2="225.0" y2="525.0"/>
<line x1="225.0" y1="525.0" x2="225.0" y2="550.0"/>
<line x1="200.0" y1="575.0" x2="225.0" y2="575.0"/>
<line x1="200.0" y1="600.0" x2="225.0" y2="600.0"/>
<line x1="200.0" y1="625.0" x2="225.0" y2="625.0"/>
<line x1="200.0" y1="675.0" x2="225.0" y2="675.0"/>
<line x1="200.0" y1="725.0" x2="225.0" y2="725.0"/>
<line x1="225.0" y1="700.0" x2="225.0" y2="725.0"/>
<line x1="225.0" y1="725.0" x2="225.0" y2="750.0"/>
<line x1="225.0" y1="750.0" x2="225.0" y2="775.0"/>
<line x1="200.0" y1="800.0" x2="225.0" y2="800.0"/>
<line x1="225.0" y1="775.0" x2="225.0" y2="800.0"/>
<line x1="225.0" y1="800.0" x2="225.0" y2="825.0"/>
<line x1="225.0" y1="825.0" x2="225.0" y2="850.0"/>
<line x1="225.0" y1="850.0" x2="225.0" y2="875.0"/>
<line x1="200.0" y1="900.0" x2="225.0" y2="900.0"/>
<line x1="200.0" y1="925.0" x2="225.0" y2="925.0"/>
<line x1="200.0" y1="950.0" x2="225.0" y2="950.0"/>
<line x1="200.0" y1="1000.0" x2="225.0" y2="1000.0"/>
<line x1="225.0" y1="975.0" x2="225.0" y2="1000.0"/>
<line x1="225.0" y1="50.0" x2="250.0" y2="50.0"/>
<line x1="250.0" y1="25.0" x2="250.0" y2="50.0"/>
<line x1="225.0" y1="100.0" x2="250.0" y2="100.0"/>
<line x1="225.0" y1="150.0" x2="250.0" y2="150.0"/>
<line x1="250.0" y1="125.0" x2="250.0" y2="150.0"/>
<line x1="225.0" y1="175.0" x2="250.0" y2="175.0"/>
<line x1="225.0" y1="200.0" x2="250.0" y2="200.0"/>
<line x1="250.0" y1="200.0" x2="250.0" y2="225.0"/>
<line x1="225.0" y1="250.0" x2="250.0" y2="250.0"/>
<line x1="225.0" y1="325.0" x2="250.0" y2="325.0"/>
<line x1="250.0" y1="300.0" x2="250.0" y2="325.0"/>
<line x1="250.0" y1="325.0" x2="250.0" y2="350.0"/>
<line x1="225.0" y1="375.0" x2="250.0" y2="375.0"/>
<line x1="225.0" y1="425.0" x2="250.0" y2="425.0"/>
<line x1="225.0" y1="450.0" x2="250.0" y2="450.0"/>
<line x1="250.0" y1="450.0" x2="250.0" y2="475.0"/>
<line x1="225.0" y1="500.0" x2="250.0" y2="500.0"/>
<line x1="250.0" y1="475.0" x2="250.0" y2="500.0"/>
<line x1="250.0" y1="525.0" x2="250.0" y2="550.0"/>
<line x1="225.0" y1="575.0" x2="250.0" y2="575.0"/>
<line x1="250.0" y1="550.0" x2="250.0" y2="575.0"/>
<line x1="250.0" y1="575.0" x2="250.0" y2="600.0"/>
<line x1="250.0" y1="600.0" x2="250.0" y2="625.0"/>
<line x1="225.0" y1="650.0" x2="250.0" y2="650.0"/>
<line x1="250.0" y1="625.0" x2="250.0" y2="650.0"/>
<line x1="225.0" y1="675.0" x2="250.0" y2="675.0"/>
<line x1="250.0" y1="650.0" x2="250.0" y2="675.0"/>
<line x1="250.0" y1="675.0" x2="250.0" y2="700.0"/>
<line x1="250.0" y1="700.0" x2="250.0" y2="725.0"/>
<line x1="225.0" y1="750.0" x2="250.0" y2="750.0"/>
<line x1="250.0" y1="775.0" x2="250.0" y2="800.0"/>
<line x1="225.0" y1="825.0" x2="250.0" y2="825.0"/>
<line x1="250.0" y1="850.0" x2="250.0" y2="875.0"/>
<line x1="225.0" y1="900.0" x2="250.0" y2="900.0"/>
<line x1="250.0" y1="875.0" x2="250.0" y2="900.0"/>
<line x1="225.0" y1="925.0" x2="250.0" y2="925.0"/>
<line x1="225.0" y1="950.0" x2="250.0" y2="950.0"/>
<line x1="250.0" y1="950.0" x2="250.0" y2="975.0"/>
<line x1="225.0" y1="1000.0" x2="250.0" y2="1000.0"/>
<line x1="250.0" y1="25.0" x2="275.0" y2="25.0"/>
<line x1="250.0" y1="75.0" x2="275.0" y2="75.0"/>
<line x1="275.0" y1="50.0" x2="275.0" y2="75.0"/>
<line x1="250.0" y1="100.0" x2="275.0" y2="100.0"/>
<line x1="250.0" y1="125.0" x2="275.0" y2="125.0"/>
<line x1="250.0" y1="175.0" x2="275.0" y2="175.0"/>
<line x1="275.0" y1="175.0" x2="275.0" y2="200.0"/>
<line x1="250.0" y1="225.0" x2="275.0" y2="225.0"/>
<line x1="250.0" y1="250.0" x2="275.0" y2="250.0"/>
<line x1="250.0" y1="275.0" x2="275.0" y2="275.0"/>
<line x1="275.0" y1="250.0" x2="275.0" y2="275.0"/>
<line x1="275.0" y1="275.0" x2="275.0" y2="300.0"/>
<line x1="250.0" y1="325.0" x2="275.0" y2="325.0"/>
<line x1="250.0" y1="375.0" x2="275.0" y2="375.0"/>
<line x1="275.0" y1="350.0" x2="275.0" y2="375.0"/>
<line x1="250.0" y1="400.0" x2="275.0" y2="400.0"/>
<line x1="250.0" y1="425.0" x2="275.0" y2="425.0"/>
<line x1="250.0" y1="450.0" x2="275.0" y2="450.0"/>
<line x1="250.0" y1="525.0" x2="275.0" y2="525.0"/>
<line x1="275.0" y1="500.0" x2="275.0" y2="525.0"/>
<line x1="275.0" y1="550.0" x2="275.0" y2="575.0"/>
<line x1="275.0" y1="575.0" x2="275.0" y2="600.0"/>
<line x1="250.0" y1="625.0" x2="275.0" y2="625.0"/>
<line x1="275.0" y1="650.0" x2="275.0" y2="675.0"/>
<line x1="275.0" y1="675.0" x2="275.0" y2="700.0"/>
<line x1="275.0" y1="700.0" x2="275.0" y2="725.0"/>
<line x1="250.0" y1="750.0" x2="275.0" y2="750.0"/>
<line x1="275.0" y1="750.0" x2="275.0" y2="775.0"/>
<line x1="250.0" y1="800.0" x2="275.0" y2="800.0"/>
<line x1="275.0" y1="800.0" x2="275.0" y2="825.0"/>
<line x1="275.0" y1="825.0" x2="275.0" y2="850.0"/>
<line x1="275.0" y1="850.0" x2="275.0" y2="875.0"/>
<line x1="275.0" y1="875.0" x2="275.0" y2="900.0"/>
<line x1="250.0" y1="925.0" x2="275.0" y2="925.0"/>
<line x1="275.0" y1="900.0" x2="275.0" y2="925.0"/>
<line x1="275.0" y1="925.0" x2="275.0" y2="950.0"/>
<line x1="250.0" y1="975.0" x2="275.0" y2="975.0"/>
<line x1="275.0" y1="950.0" x2="275.0" y2="975.0"/>
<line x1="250.0" y1="1000.0" x2="275.0" y2="1000.0"/>
<line x1="275.0" y1="25.0" x2="300.0" y2="25.0"/>
<line x1="300.0" y1="25.0" x2="300.0" y2="50.0"/>
<line x1="275.0" y1="75.0" x2="300.0" y2="75.0"/>
<line x1="300.0" y1="50.0" x2="300.0" y2="75.0"/>
<line x1="275.0" y1="100.0" x2="300.0" y2="100.0"/>
<line x1="300.0" y1="100.0" x2="300.0" y2="125.0"/>
<line x1="275.0" y1="150.0" x2="300.0" y2="150.0"/>
<line x1="300.0" y1="125.0" x2="300.0" y2="150.0"/>
<line x1="275.0" y1="175.0" x2="300.0" y2="175.0"/>
<line x1="275.0" y1="200.0" x2="300.0" y2="200.0"/>
<line x1="275.0" y1="225.0" x2="300.0" y2="225.0"/>
<line x1="300.0" y1="225.0" x2="300.0" y2="250.0"/>
<line x1="300.0" y1="250.0" x2="300.0" y2="275.0"/>
<line x1="275.0" y1="300.0" x2="300.0" y2="300.0"/>
<line x1="275.0" y1="325.0" x2="300.0" y2="325.0"/>
<line x1="300.0" y1="325.0" x2="300.0" y2="350.0"/>
<line x1="275.0" y1="375.0" x2="300.0" y2="375.0"/>
<line x1="275.0" y1="400.0" x2="300.0" y2="400.0"/>
<line x1="300.0" y1="375.0" x2="300.0" y2="400.0"/>
<line x1="275.0" y1="425.0" x2="300.0" y2="425.0"/>
<line x1="300.0" y1="425.0" x2="300.0" y2="450.0"/>
<line x1="275.0" y1="475.0" x2="300.0" y2="475.0"/>
<line x1="275.0" y1="500.0" x2="300.0" y2="500.0"/>
<line x1="300.0" y1="475.0" x2="300.0" y2="500.0"/>
<line x1="275.0" y1="550.0" x2="300.0" y2="550.0"/>
<line x1="300.0" y1="525.0" x2="300.0" y2="550.0"/>
<line x1="275.0" y1="575.0" x2="300.0" y2="575.0"/>
<line x1="275.0" y1="625.0" x2="300.0" y2="625.0"/>
<line x1="300.0" y1="600.0" x2="300.0" y2="625.0"/>
<line x1="275.0" y1="650.0" x2="300.0" y2="650.0"/>
<line x1="300.0" y1="675.0" x2="300.0" y2="700.0"/>
<line x1="275.0" y1="725.0" x2="300.0" y2="725.0"/>
<line x1="300.0" y1="725.0" x2="300.0" y2="750.0"/>
<line x1="275.0" y1="775.0" x2="300.0" y2="775.0"/>
<line x1="275.0" y1="800.0" x2="300.0" y2="800.0"/>
<line x1="275.0" y1="850.0" x2="300.0" y2="850.0"/>
<line x1="300.0" y1="875.0" x2="300.0" y2="900.0"/>
<line x1="275.0" y1="925.0" x2="300.0" y2="925.0"/>
<line x1="300.0" y1="950.0" x2="300.0" y2="975.0"/>
<line x1="275.0" y1="1000.0" x2="300.0" y2="1000.0"/>
<line x1="325.0" y1="25.0" x2="325.0" y2="50.0"/>
<line x1="300.0" y1="75.0" x2="325.0" y2="75.0"/>
<line x1="325.0" y1="100.0" x2="325.0" y2="125.0"/>
<line x1="325.0" y1="125.0" x2="325.0" y2="150.0"/>
<line x1="300.0" y1="175.0" x2="325.0" y2="175.0"/>
<line x1="325.0" y1="150.0" x2="325.0" y2="175.0"/>
<line x1="300.0" y1="200.0" x2="325.0" y2="200.0"/>
<line x1="325.0" y1="200.0" x2="325.0" y2="225.0"/>
<line x1="325.0" y1="225.0" x2="325.0" y2="250.0"/>
<line x1="300.0" y1="275.0" x2="325.0" y2="275.0"/>
<line x1="300.0" y1="300.0" x2="325.0" y2="300.0"/>
<line x1="325.0" y1="325.0" x2="325.0" y2="350.0"/>
<line x1="300.0" y1="375.0" x2="325.0" y2="375.0"/>
<line x1="325.0" y1="350.0" x2="325.0" y2="375.0"/>
<line x1="325.0" y1="400.0" x2="325.0" y2="425.0"/>
<line x1="300.0" y1="450.0" x2="325.0" y2="450.0"/>
<line x1="300.0" y1="475.0" x2="325.0" y2="475.0"/>
<line x1="300.0" y1="525.0" x2="325.0" y2="525.0"/>
<line x1="325.0" y1="500.0" x2="325.0" y2="525.0"/>
<line x1="325.0" y1="525.0" x2="325.0" y2="550.0"/>
<line x1="300.0" y1="575.0" x2="325.0" y2="575.0"/>
<line x1="325.0" y1="575.0" x2="325.0" y2="600.0"/>
<line x1="325.0" y1="600.0" x2="325.0" y2="625.0"/>
<line x1="300.0" y1="650.0" x2="325.0" y2="650.0"/>
<line x1="325.0" y1="625.0" x2="325.0" y2="650.0"/>
<line x1="300.0" y1="675.0" x2="325.0" y2="675.0"/>
<line x1="325.0" y1="675.0" x2="325.0" y2="700.0"/>
<line x1="300.0" y1="725.0" x2="325.0" y2="725.0"/>
<line x1="325.0" y1="700.0" x2="325.0" y2="725.0"/>
<line x1="300.0" y1="775.0" x2="325.0" y2="775.0"/>
<line x1="325.0" y1="750.0" x2="325.0" y2="775.0"/>
<line x1="300.0" y1="800.0" x2="325.0" y2="800.0"/>
<line x1="300.0" y1="825.0" x2="325.0" y2="825.0"/>
<line x1="300.0" y1="850.0" x2="325.0" y2="850.0"/>
<line x1="300.0" y1="875.0" x2="325.0" y2="875.0"/>
<line x1="300.0" y1="900.0" x2="325.0" y2="900.0"/>
<line x1="300.0" y1="925.0" x2="325.0" y2="925.0"/>
<line x1="300.0" y1="950.0" x2="325.0" y2="950.0"/>
<line x1="300.0" y1="1000.0" x2="325.0" y2="1000.0"/>
<line x1="325.0" y1="975.0" x2="325.0" y2="1000.0"/>
<line x1="325.0" y1="25.0" x2="350.0" y2="25.0"/>
<line x1="325.0" y1="75.0" x2="350.0" y2="75.0"/>
<line x1="350.0" y1="50.0" x2="350.0" y2="75.0"/>
<line x1="350.0" y1="75.0" x2="350.0" y2="100.0"/>
<line x1="350.0" y1="100.0" x2="350.0" y2="125.0"/>
<line x1="325.0" y1="150.0" x2="350.0" y2="150.0"/>
<line x1="325.0" y1="200.0" x2="350.0" y2="200.0"/>
<line x1="325.0" y1="250.0" x2="350.0" y2="250.0"/>
<line x1="350.0" y1="250.0" x2="350.0" y2="275.0"/>
<line x1="325.0" y1="300.0" x2="350.0" y2="300.0"/>
<line x1="350.0" y1="275.0" x2="350.0" y2="300.0"/>
<line x1="325.0" y1="325.0" x2="350.0" y2="325.0"/>
<line x1="325.0" y1="375.0" x2="350.0" y2="375.0"/>
<line x1="350.0" y1="350.0" x2="350.0" y2="375.0"/>
<line x1="325.0" y1="425.0" x2="350.0" y2="425.0"/>
<line x1="325.0" y1="450.0" x2="350.0" y2="450.0"/>
<line x1="350.0" y1="425.0" x2="350.0" y2="450.0"/>
<line x1="325.0" y1="475.0" x2="350.0" y2="475.0"/>
<line x1="325.0" y1="500.0" x2="350.0" y2="500.0"/>
<line x1="325.0" y1="550.0" x2="350.0" y2="550.0"/>
<line x1="350.0" y1="550.0" x2="350.0" y2="575.0"/>
<line x1="350.0" y1="575.0" x2="350.0" y2="600.0"/>
<line x1="350.0" y1="600.0" x2="350.0" y2="625.0"/>
<line x1="350.0" y1="625.0" x2="350.0" y2="650.0"/>
<line x1="325.0" y1="675.0" x2="350.0" y2="675.0"/>
<line x1="350.0" y1="700.0" x2="350.0" y2="725.0"/>
<line x1="350.0" y1="725.0" x2="350.0" y2="750.0"/>
<line x1="325.0" y1="775.0" x2="350.0" y2="775.0"/>
<line x1="350.0" y1="750.0" x2="350.0" y2="775.0"/>
<line x1="325.0" y1="800.0" x2="350.0" y2="800.0"/>
<line x1="325.0" y1="825.0" x2="350.0" y2="825.0"/>
<line x1="350.0" y1="825.0" x2="350.0" y2="850.0"/>
<line x1="325.0" y1="875.0" x2="350.0" y2="875.0"/>
<line x1="350.0" y1="850.0" x2="350.0" y2="875.0"/>
<line x1="350.0" y1="875.0" x2="350.0" y2="900.0"/>
<line x1="325.0" y1="925.0" x2="350.0" y2="925.0"/>
<line x1="325.0" y1="950.0" x2="350.0" y2="950.0"/>
<line x1="325.0" y1="975.0" x2="350.0" y2="975.0"/>
<line x1="325.0" y1="1000.0" x2="350.0" y2="1000.0"/>
<line x1="350.0" y1="25.0" x2="375.0" y2="25.0"/>
<line x1="375.0" y1="25.0" x2="375.0" y2="50.0"/>
<line x1="375.0" y1="50.0" x2="375.0" y2="75.0"/>
<line x1="350.0" y1="100.0" x2="375.0" y2="100.0"/>
<line x1="350.0" y1="125.0" x2="375.0" y2="125.0"/>
<line x1="350.0" y1="150.0" x2="375.0" y2="150.0"/>
<line x1="350.0" y1="175.0" x2="375.0" y2="175.0"/>
<line x1="350.0" y1="200.0" x2="375.0" y2="200.0"/>
<line x1="350.0" y1="225.0" x2="375.0" y2="225.0"/>
<line x1="375.0" y1="225.0" x2="375.0" y2="250.0"/>
<line x1="375.0" y1="250.0" x2="375.0" y2="275.0"/>
<line x1="350.0" y1="300.0" x2="375.0" y2="300.0"/>
<line x1="350.0" y1="325.0" x2="375.0" y2="325.0"/>
<line x1="350.0" y1="350.0" x2="375.0" y2="350.0"/>
<line x1="350.0" y1="400.0" x2="375.0" y2="400.0"/>
<line x1="375.0" y1="375.0" x2="375.0" y2="400.0"/>
<line x1="375.0" y1="400.0" x2="375.0" y2="425.0"/>
<line x1="375.0" y1="425.0" x2="375.0" y2="450.0"/>
<line x1="350.0" y1="475.0" x2="375.0" y2="475.0"/>
<line x1="375.0" y1="450.0" x2="375.0" y2="475.0"/>
<line x1="375.0" y1="475.0" x2="375.0" y2="500.0"/>
<line x1="350.0" y1="525.0" x2="375.0" y2="525.0"/>
<line x1="375.0" y1="500.0" x2="375.0" y2="525.0"/>
<line x1="375.0" y1="525.0" x2="375.0" y2="550.0"/>
<line x1="375.0" y1="550.0" x2="375.0" y2="575.0"/>
<line x1="375.0" y1="575.0" x2="375.0" y2="600.0"/>
<line x1="375.0" y1="600.0" x2="375.0" y2="625.0"/>
<line x1="350.0" y1="650.0" x2="375.0" y2="650.0"/>
<line x1="375.0" y1="650.0" x2="375.0" y2="675.0"/>
<line x1="350.0" y1="700.0" x2="375.0" y2="700.0"/>
<line x1="350.0" y1="725.0" x2="375.0" y2="725.0"/>
<line x1="375.0" y1="750.0" x2="375.0" y2="775.0"/>
<line x1="350.0" y1="800.0" x2="375.0" y2="800.0"/>
<line x1="375.0" y1="775.0" x2="375.0" y2="800.0"/>
<line x1="375.0" y1="800.0" x2="375.0" y2="825.0"/>
<line x1="375.0" y1="825.0" x2="375.0" y2="850.0"/>
<line x1="375.0" y1="850.0" x2="375.0" y2="875.0"/>
<line x1="350.0" y1="900.0" x2="375.0" y2="900.0"/>
<line x1="375.0" y1="900.0" x2="375.0" y2="925.0"/>
<line x1="350.0" y1="950.0" x2="375.0" y2="950.0"/>
<line x1="375.0" y1="925.0" x2="375.0" y2="950.0"/>
<line x1="375.0" y1="950.0" x2="375.0" y2="975.0"/>
<line x1="350.0" y1="1000.0" x2="375.0" y2="1000.0"/>
<line x1="375.0" y1="25.0" x2="400.0" y2="25.0"/>
<line x1="400.0" y1="50.0" x2="400.0" y2="75.0"/>
<line x1="375.0" y1="100.0" x2="400.0" y2="100.0"/>
<line x1="400.0" y1="100.0" x2="400.0" y2="125.0"/>
<line x1="400.0" y1="125.0" x2="400.0" y2="150.0"/>
<line x1="375.0" y1="175.0" x2="400.0" y2="175.0"/>
<line x1="400.0" y1="150.0" x2="400.0" y2="175.0"/>
<line x1="375.0" y1="200.0" x2="400.0" y2="200.0"/>
<line x1="400.0" y1="175.0" x2="400.0" y2="200.0"/>
<line x1="400.0" y1="200.0" x2="400.0" y2="225.0"/>
<line x1="400.0" y1="225.0" x2="400.0" y2="250.0"/>
<line x1="375.0" y1="275.0" x2="400.0" y2="275.0"/>
<line x1="400.0" y1="275.0" x2="400.0" y2="300.0"/>
<line x1="375.0" y1="325.0" x2="400.0" y2="325.0"/>
<line x1="400.0" y1="300.0" x2="400.0" y2="325.0"/>
<line x1="400.0" y1="325.0" x2="400.0" y2="350.0"/>
<line x1="400.0" y1="350.0" x2="400.0" y2="375.0"/>
<line x1="400.0" y1="375.0" x2="400.0" y2="400.0"/>
<line x1="375.0" y1="425.0" x2="400.0" y2="425.0"/>
<line x1="400.0" y1="425.0" x2="400.0" y2="450.0"/>
<line x1="400.0" y1="475.0" x2="400.0" y2="500.0"/>
<line x1="400.0" y1="525.0" x2="400.0" y2="550.0"/>
<line x1="375.0" y1="575.0" x2="400.0" y2="575.0"/>
<line x1="400.0" y1="575.0" x2="400.0" y2="600.0"/>
<line x1="375.0" y1="625.0" x2="400.0" y2="625.0"/>
<line x1="400.0" y1="625.0" x2="400.0" y2="650.0"/>
<line x1="375.0" y1="675.0" x2="400.0" y2="675.0"/>
<line x1="400.0" y1="675.0" x2="400.0" y2="700.0"/>
<line x1="375.0" y1="725.0" x2="400.0" y2="725.0"/>
<line x1="400.0" y1="700.0" x2="400.0" y2="725.0"/>
<line x1="375.0" y1="750.0" x2="400.0" y2="750.0"/>
<line x1="400.0" y1="775.0" x2="400.0" y2="800.0"/>
<line x1="375.0" y1="825.0" x2="400.0" y2="825.0"/>
<line x1="375.0" y1="875.0" x2="400.0" y2="875.0"/>
<line x1="375.0" y1="925.0" x2="400.0" y2="925.0"/>
<line x1="400.0" y1="925.0" x2="400.0" y2="950.0"/>
<line x1="400.0" y1="950.0" x2="400.0" y2="975.0"/>
<line x1="375.0" y1="1000.0" x2="400.0" y2="1000.0"/>
<line x1="400.0" y1="25.0" x2="425.0" y2="25.0"/>
<line x1="425.0" y1="25.0" x2="425.0" y2="50.0"/>
<line x1="400.0" y1="75.0" x2="425.0" y2="75.0"/>
<line x1="400.0" y1="100.0" x2="425.0" y2="100.0"/>
<line x1="425.0" y1="75.0" x2="425.0" y2="100.0"/>
<line x1="400.0" y1="150.0" x2="425.0" y2="150.0"/>
<line x1="425.0" y1="175.0" x2="425.0" y2="200.0"/>
<line x1="425.0" y1="200.0" x2="425.0" y2="225.0"/>
<line x1="400.0" y1="250.0" x2="425.0" y2="250.0"/>
<line x1="425.0" y1="250.0" x2="425.0" y2="275.0"/>
<line x1="425.0" y1="275.0" x2="425.0" y2="300.0"/>
<line x1="425.0" y1="300.0" x2="425.0" y2="325.0"/>
<line x1="425.0" y1="325.0" x2="425.0" y2="350.0"/>
<line x1="400.0" y1="375.0" x2="425.0" y2="375.0"/>
<line x1="425.0" y1="375.0" x2="425.0" y2="400.0"/>
<line x1="425.0" y1="400.0" x2="425.0" y2="425.0"/>
<line x1="400.0" y1="450.0" x2="425.0" y2="450.0"/>
<line x1="400.0" y1="500.0" x2="425.0" y2="500.0"/>
<line x1="425.0" y1="475.0" x2="425.0" y2="500.0"/>
<line x1="400.0" y1="525.0" x2="425.0" y2="525.0"/>
<line x1="425.0" y1="550.0" x2="425.0" y2="575.0"/>
<line x1="425.0" y1="575.0" x2="425.0" y2="600.0"/>
<line x1="400.0" y1="650.0" x2="425.0" y2="650.0"/>
<line x1="425.0" y1="625.0" x2="425.0" y2="650.0"/>
<circle cx="412.5" cy="637.5" r="10.0" fill="Red" />
<line x1="425.0" y1="650.0" x2="425.0" y2="675.0"/>
<line x1="425.0" y1="675.0" x2="425.0" y2="700.0"/>
<line x1="425.0" y1="700.0" x2="425.0" y2="725.0"/>
<line x1="400.0" y1="750.0" x2="425.0" y2="750.0"/>
<line x1="425.0" y1="725.0" x2="425.0" y2="750.0"/>
<line x1="400.0" y1="775.0" x2="425.0" y2="775.0"/>
<line x1="425.0" y1="775.0" x2="425.0" y2="800.0"/>
<line x1="425.0" y1="800.0" x2="425.0" y2="825.0"/>
<line x1="400.0" y1="850.0" x2="425.0" y2="850.0"/>
<line x1="425.0" y1="825.0" x2="425.0" y2="850.0"/>
<line x1="400.0" y1="875.0" x2="425.0" y2="875.0"/>
<line x1="400.0" y1="900.0" x2="425.0" y2="900.0"/>
<line x1="425.0" y1="900.0" x2="425.0" y2="925.0"/>
<line x1="425.0" y1="925.0" x2="425.0" y2="950.0"/>
<line x1="400.0" y1="975.0" x2="425.0" y2="975.0"/>
<line x1="400.0" y1="1000.0" x2="425.0" y2="1000.0"/>
<line x1="425.0" y1="975.0" x2="425.0" y2="1000.0"/>
<line x1="450.0" y1="0.0" x2="450.0" y2="25.0"/>
<line x1="425.0" y1="50.0" x2="450.0" y2="50.0"/>
<line x1="450.0" y1="50.0" x2="450.0" y2="75.0"/>
<line x1="450.0" y1="75.0" x2="450.0" y2="100.0"/>
<line x1="425.0" y1="125.0" x2="450.0" y2="125.0"/>
<line x1="450.0" y1="100.0" x2="450.0" y2="125.0"/>
<line x1="450.0" y1="125.0" x2="450.0" y2="150.0"/>
<line x1="425.0" y1="175.0" x2="450.0" y2="175.0"/>
<line x1="450.0" y1="150.0" x2="450.0" y2="175.0"/>
<line x1="450.0" y1="175.0" x2="450.0" y2="200.0"/>
<line x1="425.0" y1="225.0" x2="450.0" y2="225.0"/>
<line x1="450.0" y1="250.0" x2="450.0" y2="275.0"/>
<line x1="450.0" y1="275.0" x2="450.0" y2="300.0"/>
<line x1="450.0" y1="300.0" x2="450.0" y2="325.0"/>
<line x1="425.0" y1="350.0" x2="450.0" y2="350.0"/>
<line x1="450.0" y1="325.0" x2="450.0" y2="350.0"/>
<line x1="450.0" y1="350.0" x2="450.0" y2="375.0"/>
<line x1="450.0" y1="375.0" x2="450.0" y2="400.0"/>
<line x1="425.0" y1="425.0" x2="450.0" y2="425.0"/>
<line x1="425.0" y1="450.0" x2="450.0" y2="450.0"/>
<line x1="425.0" y1="475.0" x2="450.0" y2="475.0"/>
<line x1="450.0" y1="450.0" x2="450.0" y2="475.0"/>
<line x1="425.0" y1="525.0" x2="450.0" y2="525.0"/>
<line x1="450.0" y1="500.0" x2="450.0" y2="525.0"/>
<line x1="425.0" y1="550.0" x2="450.0" y2="550.0"/>
<line x1="450.0" y1="525.0" x2="450.0" y2="550.0"/>
<line x1="425.0" y1="600.0" x2="450.0" y2="600.0"/>
<line x1="425.0" y1="625.0" x2="450.0" y2="625.0"/>
<line x1="450.0" y1="650.0" x2="450.0" y2="675.0"/>
<line x1="450.0" y1="700.0" x2="450.0" y2="725.0"/>
<line x1="425.0" y1="750.0" x2="450.0" y2="750.0"/>
<line x1="450.0" y1="750.0" x2="450.0" y2="775.0"/>
<line x1="425.0" y1="800.0" x2="450.0" y2="800.0"/>
<line x1="425.0" y1="825.0" x2="450.0" y2="825.0"/>
<line x1="425.0" y1="875.0" x2="450.0" y2="875.0"/>
<line x1="450.0" y1="850.0" x2="450.0" y2="875.0"/>
<line x1="450.0" y1="875.0" x2="450.0" y2="900.0"/>
<line x1="425.0" y1="925.0" x2="450.0" y2="925.0"/>
<line x1="425.0" y1="950.0" x2="450.0" y2="950.0"/>
<line x1="450.0" y1="950.0" x2="450.0" y2="975.0"/>
<line x1="425.0" y1="1000.0" x2="450.0" y2="1000.0"/>
<line x1="450.0" y1="25.0" x2="475.0" y2="25.0"/>
<line x1="450.0" y1="50.0" x2="475.0" y2="50.0"/>
<line x1="475.0" y1="50.0" x2="475.0" y2="75.0"/>
<line x1="450.0" y1="125.0" x2="475.0" y2="125.0"/>
<line x1="475.0" y1="100.0" x2="475.0" y2="125.0"/>
<line x1="475.0" y1="150.0" x2="475.0" y2="175.0"/>
<line x1="450.0" y1="225.0" x2="475.0" y2="225.0"/>
<line x1="450.0" y1="250.0" x2="475.0" y2="250.0"/>
<line x1="450.0" y1="300.0" x2="475.0" y2="300.0"/>
<line x1="475.0" y1="325.0" x2="475.0" y2="350.0"/>
<line x1="475.0" y1="350.0" x2="475.0" y2="375.0"/>
<line x1="475.0" y1="375.0" x2="475.0" y2="400.0"/>
<line x1="450.0" y1="425.0" x2="475.0" y2="425.0"/>
<line x1="475.0" y1="400.0" x2="475.0" y2="425.0"/>
<line x1="475.0" y1="425.0" x2="475.0" y2="450.0"/>
<line x1="450.0" y1="475.0" x2="475.0" y2="475.0"/>
<line x1="475.0" y1="475.0" x2="475.0" y2="500.0"/>
<line x1="475.0" y1="500.0" x2="475.0" y2="525.0"/>
<line x1="450.0" y1="550.0" x2="475.0" y2="550.0"/>
<line x1="450.0" y1="575.0" x2="475.0" y2="575.0"/>
<line x1="450.0" y1="600.0" x2="475.0" y2="600.0"/>
<line x1="450.0" y1="625.0" x2="475.0" y2="625.0"/>
<line x1="475.0" y1="600.0" x2="475.0" y2="625.0"/>
<line x1="475.0" y1="625.0" x2="475.0" y2="650.0"/>
<line x1="450.0" y1="675.0" x2="475.0" y2="675.0"/>
<line x1="475.0" y1="675.0" x2="475.0" y2="700.0"/>
<line x1="450.0" y1="725.0" x2="475.0" y2="725.0"/>
<line x1="450.0" y1="750.0" x2="475.0" y2="750.0"/>
<line x1="475.0" y1="725.0" x2="475.0" y2="750.0"/>
<line x1="450.0" y1="800.0" x2="475.0" y2="800.0"/>
<line x1="475.0" y1="775.0" x2="475.0" y2="800.0"/>
<line x1="450.0" y1="825.0" x2="475.0" y2="825.0"/>
<line x1="450.0" y1="850.0" x2="475.0" y2="850.0"/>
<line x1="450.0" y1="900.0" x2="475.0" y2="900.0"/>
<line x1="475.0" y1="900.0" x2="475.0" y2="925.0"/>
<line x1="450.0" y1="950.0" x2="475.0" y2="950.0"/>
<line x1="450.0" y1="1000.0" x2="475.0" y2="1000.0"/>
<line x1="475.0" y1="25.0" x2="500.0" y2="25.0"/>
<line x1="500.0" y1="25.0" x2="500.0" y2="50.0"/>
<line x1="475.0" y1="75.0" x2="500.0" y2="75.0"/>
<line x1="475.0" y1="100.0" x2="500.0" y2="100.0"/>
<line x1="475.0" y1="150.0" x2="500.0" y2="150.0"/>
<line x1="500.0" y1="125.0" x2="500.0" y2="150.0"/>
<line x1="475.0" y1="175.0" x2="500.0" y2="175.0"/>
<line x1="475.0" y1="200.0" x2="500.0" y2="200.0"/>
<line x1="475.0" y1="225.0" x2="500.0" y2="225.0"/>
<line x1="500.0" y1="200.0" x2="500.0" y2="225.0"/>
<line x1="500.0" y1="225.0" x2="500.0" y2="250.0"/>
<line x1="475.0" y1="275.0" x2="500.0" y2="275.0"/>
<line x1="500.0" y1="250.0" x2="500.0" y2="275.0"/>
<line x1="475.0" y1="300.0" x2="500.0" y2="300.0"/>
<circle cx="487.5" cy="287.5" r="10.0" fill="Red" />
<line x1="500.0" y1="300.0" x2="500.0" y2="325.0"/>
<line x1="475.0" y1="350.0" x2="500.0" y2="350.0"/>
<line x1="500.0" y1="350.0" x2="500.0" y2="375.0"/>
<line x1="500.0" y1="375.0" x2="500.0" y2="400.0"/>
<line x1="475.0" y1="450.0" x2="500.0" y2="450.0"/>
<line x1="500.0" y1="450.0" x2="500.0" y2="475.0"/>
<line x1="500.0" y1="475.0" x2="500.0" y2="500.0"/>
<line x1="475.0" y1="525.0" x2="500.0" y2="525.0"/>
<line x1="500.0" y1="525.0" x2="500.0" y2="550.0"/>
<line x1="475.0" y1="575.0" x2="500.0" y2="575.0"/>
<line x1="500.0" y1="550.0" x2="500.0" y2="575.0"/>
<line x1="500.0" y1="575.0" x2="500.0" y2="600.0"/>
<line x1="500.0" y1="600.0" x2="500.0" y2="625.0"/>
<line x1="500.0" y1="625.0" x2="500.0" y2="650.0"/>
<line x1="475.0" y1="675.0" x2="500.0" y2="675.0"/>
<line x1="475.0" y1="725.0" x2="500.0" y2="725.0"/>
<line x1="500.0" y1="700.0" x2="500.0" y2="725.0"/>
<line x1="475.0" y1="775.0" x2="500.0" y2="775.0"/>
<line x1="500.0" y1="750.0" x2="500.0" y2="775.0"/>
<line x1="475.0" y1="800.0" x2="500.0" y2="800.0"/>
<line x1="475.0" y1="850.0" x2="500.0" y2="850.0"/>
<line x1="500.0" y1="825.0" x2="500.0" y2="850.0"/>
<line x1="475.0" y1="875.0" x2="500.0" y2="875.0"/>
<line x1="500.0" y1="875.0" x2="500.0" y2="900.0"/>
<line x1="475.0" y1="925.0" x2="500.0" y2="925.0"/>
<line x1="475.0" y1="950.0" x2="500.0" y2="950.0"/>
<line x1="500.0" y1="925.0" x2="500.0" y2="950.0"/>
<line x1="475.0" y1="975.0" x2="500.0" y2="975.0"/>
<line x1="475.0" y1="1000.0" x2="500.0" y2="1000.0"/>
<line x1="500.0" y1="50.0" x2="525.0" y2="50.0"/>
<line x1="500.0" y1="75.0" x2="525.0" y2="75.0"/>
<line x1="525.0" y1="75.0" x2="525.0" y2="100.0"/>
<line x1="500.0" y1="125.0" x2="525.0" y2="125.0"/>
<line x1="525.0" y1="125.0" x2="525.0" y2="150.0"/>
<line x1="500.0" y1="175.0" x2="525.0" y2="175.0"/>
<line x1="525.0" y1="175.0" x2="525.0" y2="200.0"/>
<line x1="525.0" y1="200.0" x2="525.0" y2="225.0"/>
<line x1="525.0" y1="225.0" x2="525.0" y2="250.0"/>
<line x1="500.0" y1="275.0" x2="525.0" y2="275.0"/>
<line x1="525.0" y1="275.0" x2="525.0" y2="300.0"/>
<line x1="500.0" y1="325.0" x2="525.0" y2="325.0"/>
<line x1="500.0" y1="350.0" x2="525.0" y2="350.0"/>
<line x1="525.0" y1="375.0" x2="525.0" y2="400.0"/>
<line x1="500.0" y1="425.0" x2="525.0" y2="425.0"/>
<line x1="525.0" y1="400.0" x2="525.0" y2="425.0"/>
<line x1="525.0" y1="425.0" x2="525.0" y2="450.0"/>
<line x1="500.0" y1="475.0" x2="525.0" y2="475.0"/>
<line x1="500.0" y1="525.0" x2="525.0" y2="525.0"/>
<line x1="525.0" y1="500.0" x2="525.0" y2="525.0"/>
<line x1="525.0" y1="550.0" x2="525.0" y2="575.0"/>
<line x1="525.0" y1="575.0" x2="525.0" y2="600.0"/>
<line x1="525.0" y1="600.0" x2="525.0" y2="625.0"/>
<line x1="500.0" y1="650.0" x2="525.0" y2="650.0"/>
<line x1="500.0" y1="675.0" x2="525.0" y2="675.0"/>
<line x1="525.0" y1="650.0" x2="525.0" y2="675.0"/>
<line x1="500.0" y1="700.0" x2="525.0" y2="700.0"/>
<line x1="500.0" y1="750.0" x2="525.0" y2="750.0"/>
<line x1="525.0" y1="725.0" x2="525.0" y2="750.0"/>
<line x1="500.0" y1="775.0" x2="525.0" y2="775.0"/>
<line x1="500.0" y1="825.0" x2="525.0" y2="825.0"/>
<line x1="525.0" y1="800.0" x2="525.0" y2="825.0"/>
<line x1="525.0" y1="825.0" x2="525.0" y2="850.0"/>
<line x1="500.0" y1="875.0" x2="525.0" y2="875.0"/>
<line x1="500.0" y1="900.0" x2="525.0" y2="900.0"/>
<line x1="525.0" y1="925.0" x2="525.0" y2="950.0"/>
<line x1="500.0" y1="975.0" x2="525.0" y2="975.0"/>
<line x1="525.0" y1="950.0" x2="525.0" y2="975.0"/>
<line x1="500.0" y1="1000.0" x2="525.0" y2="1000.0"/>
<line x1="525.0" y1="25.0" x2="550.0" y2="25.0"/>
<line x1="525.0" y1="50.0" x2="550.0" y2="50.0"/>
<line x1="550.0" y1="50.0" x2="550.0" y2="75.0"/>
<line x1="525.0" y1="100.0" x2="550.0" y2="100.0"/>
<line x1="550.0" y1="100.0" x2="550.0" y2="125.0"/>
<line x1="550.0" y1="125.0" x2="550.0" y2="150.0"/>
<line x1="550.0" y1="150.0" x2="550.0" y2="175.0"/>
<line x1="550.0" y1="175.0" x2="550.0" y2="200.0"/>
<line x1="550.0" y1="200.0" x2="550.0" y2="225.0"/>
<line x1="525.0" y1="250.0" x2="550.0" y2="250.0"/>
<line x1="525.0" y1="300.0" x2="550.0" y2="300.0"/>
<line x1="550.0" y1="275.0" x2="550.0" y2="300.0"/>
<line x1="525.0" y1="325.0" x2="550.0" y2="325.0"/>
<line x1="550.0" y1="325.0" x2="550.0" y2="350.0"/>
<line x1="525.0" y1="375.0" x2="550.0" y2="375.0"/>
<line x1="550.0" y1="350.0" x2="550.0" y2="375.0"/>
<line x1="550.0" y1="375.0" x2="550.0" y2="400.0"/>
<line x1="525.0" y1="450.0" x2="550.0" y2="450.0"/>
<line x1="550.0" y1="425.0" x2="550.0" y2="450.0"/>
<line x1="525.0" y1="475.0" x2="550.0" y2="475.0"/>
<line x1="550.0" y1="475.0" x2="550.0" y2="500.0"/>
<line x1="525.0" y1="525.0" x2="550.0" y2="525.0"/>
<line x1="525.0" y1="550.0" x2="550.0" y2="550.0"/>
<line x1="525.0" y1="575.0" x2="550.0" y2="575.0"/>
<line x1="525.0" y1="625.0" x2="550.0" y2="625.0"/>
<line x1="525.0" y1="650.0" x2="550.0" y2="650.0"/>
<line x1="525.0" y1="700.0" x2="550.0" y2="700.0"/>
<line x1="550.0" y1="675.0" x2="550.0" y2="700.0"/>
<line x1="525.0" y1="725.0" x2="550.0" y2="725.0"/>
<line x1="525.0" y1="775.0" x2="550.0" y2="775.0"/>
<line x1="525.0" y1="800.0" x2="550.0" y2="800.0"/>
<line x1="550.0" y1="825.0" x2="550.0" y2="850.0"/>
<line x1="525.0" y1="875.0" x2="550.0" y2="875.0"/>
<line x1="550.0" y1="850.0" x2="550.0" y2="875.0"/>
<line x1="550.0" y1="875.0" x2="550.0" y2="900.0"/>
<line x1="525.0" y1="925.0" x2="550.0" y2="925.0"/>
<line x1="550.0" y1="900.0" x2="550.0" y2="925.0"/>
<line x1="525.0" y1="975.0" x2="550.0" y2="975.0"/>
<line x1="525.0" y1="1000.0" x2="550.0" y2="1000.0"/>
<line x1="550.0" y1="975.0" x2="550.0" y2="1000.0"/>
<line x1="550.0" y1="25.0" x2="575.0" y2="25.0"/>
<line x1="575.0" y1="25.0" x2="575.0" y2="50.0"/>
<line x1="575.0" y1="50.0" x2="575.0" y2="75.0"/>
<line x1="550.0" y1="100.0" x2="575.0" y2="100.0"/>
<line x1="575.0" y1="75.0" x2="575.0" y2="100.0"/>
<line x1="550.0" y1="150.0" x2="575.0" y2="150.0"/>
<line x1="550.0" y1="225.0" x2="575.0" y2="225.0"/>
<line x1="575.0" y1="200.0" x2="575.0" y2="225.0"/>
<line x1="550.0" y1="250.0" x2="575.0" y2="250.0"/>
<line x1="575.0" y1="250.0" x2="575.0" y2="275.0"/>
<line x1="550.0" y1="300.0" x2="575.0" y2="300.0"/>
<line x1="575.0" y1="300.0" x2="575.0" y2="325.0"/>
<line x1="575.0" y1="325.0" x2="575.0" y2="350.0"/>
<line x1="575.0" y1="375.0" x2="575.0" y2="400.0"/>
<line x1="550.0" y1="425.0" x2="575.0" y2="425.0"/>
<line x1="575.0" y1="400.0" x2="575.0" y2="425.0"/>
<line x1="550.0" y1="475.0" x2="575.0" y2="475.0"/>
<line x1="575.0" y1="450.0" x2="575.0" y2="475.0"/>
<line x1="550.0" y1="500.0" x2="575.0" y2="500.0"/>
<line x1="550.0" y1="525.0" x2="575.0" y2="525.0"/>
<line x1="550.0" y1="550.0" x2="575.0" y2="550.0"/>
<line x1="550.0" y1="575.0" x2="575.0" y2="575.0"/>
<line x1="550.0" y1="600.0" x2="575.0" y2="600.0"/>
<line x1="575.0" y1="600.0" x2="575.0" y2="625.0"/>
<line x1="550.0" y1="650.0" x2="575.0" y2="650.0"/>
<line x1="575.0" y1="625.0" x2="575.0" y2="650.0"/>
<line x1="550.0" y1="700.0" x2="575.0" y2="700.0"/>
<line x1="550.0" y1="725.0" x2="575.0" y2="725.0"/>
<line x1="550.0" y1="750.0" x2="575.0" y2="750.0"/>
<line x1="575.0" y1="750.0" x2="575.0" y2="775.0"/>
<line x1="550.0" y1="800.0" x2="575.0" y2="800.0"/>
<line x1="575.0" y1="775.0" x2="575.0" y2="800.0"/>
<line x1="550.0" y1="825.0" x2="575.0" y2="825.0"/>
<line x1="550.0" y1="875.0" x2="575.0" y2="875.0"/>
<line x1="575.0" y1="900.0" x2="575.0" y2="925.0"/>
<line x1="550.0" y1="950.0" x2="575.0" y2="950.0"/>
<line x1="575.0" y1="925.0" x2="575.0" y2="950.0"/>
<line x1="575.0" y1="950.0" x2="575.0" y2="975.0"/>
<line x1="550.0" y1="1000.0" x2="575.0" y2="1000.0"/>
<line x1="575.0" y1="25.0" x2="600.0" y2="25.0"/>
<line x1="575.0" y1="75.0" x2="600.0" y2="75.0"/>
<line x1="600.0" y1="75.0" x2="600.0" y2="100.0"/>
<line x1="575.0" y1="125.0" x2="600.0" y2="125.0"/>
<line x1="600.0" y1="125.0" x2="600.0" y2="150.0"/>
<line x1="575.0" y1="175.0" x2="600.0" y2="175.0"/>
<line x1="600.0" y1="150.0" x2="600.0" y2="175.0"/>
<line x1="600.0" y1="175.0" x2="600.0" y2="200.0"/>
<line x1="575.0" y1="225.0" x2="600.0" y2="225.0"/>
<line x1="600.0" y1="225.0" x2="600.0" y2="250.0"/>
<line x1="575.0" y1="275.0" x2="600.0" y2="275.0"/>
<line x1="600.0" y1="275.0" x2="600.0" y2="300.0"/>
<line x1="575.0" y1="325.0" x2="600.0" y2="325.0"/>
<line x1="575.0" y1="375.0" x2="600.0" y2="375.0"/>
<line x1="600.0" y1="350.0" x2="600.0" y2="375.0"/>
<line x1="575.0" y1="425.0" x2="600.0" y2="425.0"/>
<circle cx="587.5" cy="412.5" r="10.0" fill="Red" />
<line x1="575.0" y1="450.0" x2="600.0" y2="450.0"/>
<line x1="600.0" y1="450.0" x2="600.0" y2="475.0"/>
<line x1="600.0" y1="475.0" x2="600.0" y2="500.0"/>
<line x1="600.0" y1="500.0" x2="600.0" y2="525.0"/>
<line x1="575.0" y1="550.0" x2="600.0" y2="550.0"/>
<line x1="600.0" y1="525.0" x2="600.0" y2="550.0"/>
<line x1="575.0" y1="575.0" x2="600.0" y2="575.0"/>
<line x1="575.0" y1="600.0" x2="600.0" y2="600.0"/>
<line x1="600.0" y1="600.0" x2="600.0" y2="625.0"/>
<line x1="600.0" y1="625.0" x2="600.0" y2="650.0"/>
<line x1="575.0" y1="675.0" x2="600.0" y2="675.0"/>
<line x1="600.0" y1="650.0" x2="600.0" y2="675.0"/>
<line x1="575.0" y1="700.0" x2="600.0" y2="700.0"/>
<line x1="575.0" y1="725.0" x2="600.0" y2="725.0"/>
<line x1="600.0" y1="725.0" x2="600.0" y2="750.0"/>
<line x1="600.0" y1="750.0" x2="600.0" y2="775.0"/>
<line x1="575.0" y1="800.0" x2="600.0" y2="800.0"/>
<line x1="600.0" y1="800.0" x2="600.0" y2="825.0"/>
<line x1="575.0" y1="850.0" x2="600.0" y2="850.0"/>
<line x1="600.0" y1="850.0" x2="600.0" y2="875.0"/>
<line x1="600.0" y1="875.0" x2="600.0" y2="900.0"/>
<line x1="600.0" y1="900.0" x2="600.0" y2="925.0"/>
<line x1="600.0" y1="925.0" x2="600.0" y2="950.0"/>
<line x1="575.0" y1="975.0" x2="600.0" y2="975.0"/>
<line x1="600.0" y1="950.0" x2="600.0" y2="975.0"/>
<line x1="575.0" y1="1000.0" x2="600.0" y2="1000.0"/>
<line x1="600.0" y1="25.0" x2="625.0" y2="25.0"/>
<line x1="600.0" y1="50.0" x2="625.0" y2="50.0"/>
<line x1="625.0" y1="50.0" x2="625.0" y2="75.0"/>
<line x1="600.0" y1="100.0" x2="625.0" y2="100.0"/>
<line x1="625.0" y1="100.0" x2="625.0" y2="125.0"/>
<line x1="625.0" y1="125.0" x2="625.0" y2="150.0"/>
<circle cx="612.5" cy="137.5" r="10.0" fill="Red" />
<line x1="625.0" y1="150.0" x2="625.0" y2="175.0"/>
<line x1="600.0" y1="200.0" x2="625.0" y2="200.0"/>
<line x1="625.0" y1="175.0" x2="625.0" y2="200.0"/>
<line x1="625.0" y1="200.0" x2="625.0" y2="225.0"/>
<line x1="625.0" y1="225.0" x2="625.0" y2="250.0"/>
<line x1="625.0" y1="250.0" x2="625.0" y2="275.0"/>
<line x1="600.0" y1="300.0" x2="625.0" y2="300.0"/>
<line x1="625.0" y1="275.0" x2="625.0" y2="300.0"/>
<line x1="600.0" y1="325.0" x2="625.0" y2="325.0"/>
<line x1="625.0" y1="325.0" x2="625.0" y2="350.0"/>
<line x1="625.0" y1="350.0" x2="625.0" y2="375.0"/>
<line x1="600.0" y1="400.0" x2="625.0" y2="400.0"/>
<line x1="625.0" y1="375.0" x2="625.0" y2="400.0"/>
<line x1="600.0" y1="425.0" x2="625.0" y2="425.0"/>
<line x1="600.0" y1="450.0" x2="625.0" y2="450.0"/>
<line x1="600.0" y1="500.0" x2="625.0" y2="500.0"/>
<line x1="625.0" y1="500.0" x2="625.0" y2="525.0"/>
<line x1="625.0" y1="550.0" x2="625.0" y2="575.0"/>
<line x1="600.0" y1="600.0" x2="625.0" y2="600.0"/>
<line x1="625.0" y1="575.0" x2="625.0" y2="600.0"/>
<line x1="625.0" y1="625.0" x2="625.0" y2="650.0"/>
<line x1="625.0" y1="650.0" x2="625.0" y2="675.0"/>
<line x1="600.0" y1="700.0" x2="625.0" y2="700.0"/>
<line x1="625.0" y1="700.0" x2="625.0" y2="725.0"/>
<line x1="600.0" y1="750.0" x2="625.0" y2="750.0"/>
<line x1="600.0" y1="775.0" x2="625.0" y2="775.0"/>
<line x1="625.0" y1="775.0" x2="625.0" y2="800.0"/>
<line x1="600.0" y1="825.0" x2="625.0" y2="825.0"/>
<line x1="625.0" y1="825.0" x2="625.0" y2="850.0"/>
<line x1="600.0" y1="875.0" x2="625.0" y2="875.0"/>
<line x1="625.0" y1="850.0" x2="625.0" y2="875.0"/>
<line x1="600.0" y1="925.0" x2="625.0" y2="925.0"/>
<line x1="625.0" y1="950.0" x2="625.0" y2="975.0"/>
<line x1="600.0" y1="1000.0" x2="625.0" y2="1000.0"/>
<line x1="625.0" y1="25.0" x2="650.0" y2="25.0"/>
<line x1="625.0" y1="50.0" x2="650.0" y2="50.0"/>
<line x1="650.0" y1="50.0" x2="650.0" y2="75.0"/>
<line x1="650.0" y1="75.0" x2="650.0" y2="100.0"/>
<line x1="650.0" y1="100.0" x2="650.0" y2="125.0"/>
<line x1="625.0" y1="150.0" x2="650.0" y2="150.0"/>
<line x1="650.0" y1="175.0" x2="650.0" y2="200.0"/>
<line x1="625.0" y1="225.0" x2="650.0" y2="225.0"/>
<line x1="650.0" y1="250.0" x2="650.0" y2="275.0"/>
<line x1="650.0" y1="275.0" x2="650.0" y2="300.0"/>
<line x1="650.0" y1="325.0" x2="650.0" y2="350.0"/>
<line x1="625.0" y1="375.0" x2="650.0" y2="375.0"/>
<line x1="650.0" y1="350.0" x2="650.0" y2="375.0"/>
<line x1="625.0" y1="425.0" x2="650.0" y2="425.0"/>
<line x1="650.0" y1="400.0" x2="650.0" y2="425.0"/>
<line x1="625.0" y1="450.0" x2="650.0" y2="450.0"/>
<line x1="625.0" y1="475.0" x2="650.0" y2="475.0"/>
<line x1="650.0" y1="475.0" x2="650.0" y2="500.0"/>
<line x1="625.0" y1="525.0" x2="650.0" y2="525.0"/>
<line x1="625.0" y1="550.0" x2="650.0" y2="550.0"/>
<line x1="625.0" y1="600.0" x2="650.0" y2="600.0"/>
<line x1="625.0" y1="650.0" x2="650.0" y2="650.0"/>
<line x1="625.0" y1="700.0" x2="650.0" y2="700.0"/>
<line x1="650.0" y1="675.0" x2="650.0" y2="700.0"/>
<line x1="625.0" y1="750.0" x2="650.0" y2="750.0"/>
<line x1="650.0" y1="725.0" x2="650.0" y2="750.0"/>
<line x1="625.0" y1="800.0" x2="650.0" y2="800.0"/>
<line x1="625.0" y1="825.0" x2="650.0" y2="825.0"/>
<line x1="625.0" y1="875.0" x2="650.0" y2="875.0"/>
<line x1="625.0" y1="900.0" x2="650.0" y2="900.0"/>
<line x1="650.0" y1="900.0" x2="650.0" y2="925.0"/>
<line x1="625.0" y1="950.0" x2="650.0" y2="950.0"/>
<line x1="650.0" y1="925.0" x2="650.0" y2="950.0"/>
<line x1="625.0" y1="975.0" x2="650.0" y2="975.0"/>
<line x1="625.0" y1="1000.0" x2="650.0" y2="1000.0"/>
<line x1="650.0" y1="25.0" x2="675.0" y2="25.0"/>
<line x1="675.0" y1="25.0" x2="675.0" y2="50.0"/>
<line x1="650.0" y1="75.0" x2="675.0" y2="75.0"/>
<line x1="675.0" y1="75.0" x2="675.0" y2="100.0"/>
<line x1="650.0" y1="125.0" x2="675.0" y2="125.0"/>
<line x1="675.0" y1="125.0" x2="675.0" y2="150.0"/>
<line x1="650.0" y1="175.0" x2="675.0" y2="175.0"/>
<line x1="675.0" y1="150.0" x2="675.0" y2="175.0"/>
<line x1="650.0" y1="200.0" x2="675.0" y2="200.0"/>
<line x1="675.0" y1="200.0" x2="675.0" y2="225.0"/>
<line x1="650.0" y1="250.0" x2="675.0" y2="250.0"/>
<line x1="675.0" y1="225.0" x2="675.0" y2="250.0"/>
<line x1="650.0" y1="300.0" x2="675.0" y2="300.0"/>
<line x1="675.0" y1="275.0" x2="675.0" y2="300.0"/>
<line x1="650.0" y1="325.0" x2="675.0" y2="325.0"/>
<line x1="650.0" y1="375.0" x2="675.0" y2="375.0"/>
<line x1="675.0" y1="375.0" x2="675.0" y2="400.0"/>
<line x1="650.0" y1="425.0" x2="675.0" y2="425.0"/>
<line x1="650.0" y1="450.0" x2="675.0" y2="450.0"/>
<line x1="675.0" y1="450.0" x2="675.0" y2="475.0"/>
<line x1="650.0" y1="500.0" x2="675.0" y2="500.0"/>
<line x1="650.0" y1="525.0" x2="675.0" y2="525.0"/>
<line x1="675.0" y1="525.0" x2="675.0" y2="550.0"/>
<line x1="650.0" y1="575.0" x2="675.0" y2="575.0"/>
<line x1="675.0" y1="550.0" x2="675.0" y2="575.0"/>
<line x1="650.0" y1="600.0" x2="675.0" y2="600.0"/>
<line x1="650.0" y1="625.0" x2="675.0" y2="625.0"/>
<line x1="650.0" y1="650.0" x2="675.0" y2="650.0"/>
<line x1="650.0" y1="675.0" x2="675.0" y2="675.0"/>
<line x1="650.0" y1="700.0" x2="675.0" y2="700.0"/>
<line x1="650.0" y1="725.0" x2="675.0" y2="725.0"/>
<line x1="675.0" y1="725.0" x2="675.0" y2="750.0"/>
<line x1="650.0" y1="775.0" x2="675.0" y2="775.0"/>
<line x1="650.0" y1="800.0" x2="675.0" y2="800.0"/>
<line x1="675.0" y1="775.0" x2="675.0" y2="800.0"/>
<line x1="650.0" y1="825.0" x2="675.0" y2="825.0"/>
<line x1="650.0" y1="850.0" x2="675.0" y2="850.0"/>
<line x1="675.0" y1="850.0" x2="675.0" y2="875.0"/>
<line x1="650.0" y1="900.0" x2="675.0" y2="900.0"/>
<line x1="675.0" y1="875.0" x2="675.0" y2="900.0"/>
<line x1="650.0" y1="950.0" x2="675.0" y2="950.0"/>
<line x1="675.0" y1="925.0" x2="675.0" y2="950.0"/>
<line x1="650.0" y1="1000.0" x2="675.0" y2="1000.0"/>
<line x1="675.0" y1="975.0" x2="675.0" y2="1000.0"/>
<line x1="675.0" y1="25.0" x2="700.0" y2="25.0"/>
<line x1="675.0" y1="75.0" x2="700.0" y2="75.0"/>
<line x1="700.0" y1="50.0" x2="700.0" y2="75.0"/>
<line x1="675.0" y1="125.0" x2="700.0" y2="125.0"/>
<line x1="700.0" y1="100.0" x2="700.0" y2="125.0"/>
<line x1="700.0" y1="150.0" x2="700.0" y2="175.0"/>
<line x1="700.0" y1="175.0" x2="700.0" y2="200.0"/>
<line x1="675.0" y1="250.0" x2="700.0" y2="250.0"/>
<line x1="700.0" y1="275.0" x2="700.0" y2="300.0"/>
<line x1="675.0" y1="325.0" x2="700.0" y2="325.0"/>
<line x1="700.0" y1="300.0" x2="700.0" y2="325.0"/>
<line x1="675.0" y1="350.0" x2="700.0" y2="350.0"/>
<line x1="700.0" y1="350.0" x2="700.0" y2="375.0"/>
<line x1="700.0" y1="375.0" x2="700.0" y2="400.0"/>
<line x1="675.0" y1="425.0" x2="700.0" y2="425.0"/>
<line x1="700.0" y1="425.0" x2="700.0" y2="450.0"/>
<line x1="675.0" y1="475.0" x2="700.0" y2="475.0"/>
<line x1="675.0" y1="500.0" x2="700.0" y2="500.0"/>
<line x1="675.0" y1="525.0" x2="700.0" y2="525.0"/>
<line x1="675.0" y1="575.0" x2="700.0" y2="575.0"/>
<line x1="700.0" y1="550.0" x2="700.0" y2="575.0"/>
<line x1="675.0" y1="600.0" x2="700.0" y2="600.0"/>
<line x1="675.0" y1="625.0" x2="700.0" y2="625.0"/>
<line x1="675.0" y1="650.0" x2="700.0" y2="650.0"/>
<line x1="675.0" y1="700.0" x2="700.0" y2="700.0"/>
<line x1="700.0" y1="675.0" x2="700.0" y2="700.0"/>
<line x1="700.0" y1="700.0" x2="700.0" y2="725.0"/>
<line x1="675.0" y1="750.0" x2="700.0" y2="750.0"/>
<line x1="700.0" y1="750.0" x2="700.0" y2="775.0"/>
<line x1="675.0" y1="800.0" x2="700.0" y2="800.0"/>
<line x1="675.0" y1="825.0" x2="700.0" y2="825.0"/>
<line x1="700.0" y1="825.0" x2="700.0" y2="850.0"/>
<line x1="675.0" y1="875.0" x2="700.0" y2="875.0"/>
<line x1="675.0" y1="925.0" x2="700.0" y2="925.0"/>
<line x1="700.0" y1="900.0" x2="700.0" y2="925.0"/>
<line x1="675.0" y1="975.0" x2="700.0" y2="975.0"/>
<line x1="700.0" y1="950.0" x2="700.0" y2="975.0"/>
<line x1="675.0" y1="1000.0" x2="700.0" y2="1000.0"/>
<line x1="725.0" y1="0.0" x2="725.0" y2="25.0"/>
<line x1="700.0" y1="50.0" x2="725.0" y2="50.0"/>
<line x1="725.0" y1="25.0" x2="725.0" y2="50.0"/>
<line x1="700.0" y1="100.0" x2="725.0" y2="100.0"/>
<line x1="700.0" y1="150.0" x2="725.0" y2="150.0"/>
<line x1="725.0" y1="125.0" x2="725.0" y2="150.0"/>
<line x1="700.0" y1="200.0" x2="725.0" y2="200.0"/>
<line x1="725.0" y1="175.0" x2="725.0" y2="200.0"/>
<line x1="700.0" y1="225.0" x2="725.0" y2="225.0"/>
<line x1="700.0" y1="250.0" x2="725.0" y2="250.0"/>
<line x1="725.0" y1="225.0" x2="725.0" y2="250.0"/>
<line x1="725.0" y1="250.0" x2="725.0" y2="275.0"/>
<line x1="700.0" y1="300.0" x2="725.0" y2="300.0"/>
<line x1="700.0" y1="325.0" x2="725.0" y2="325.0"/>
<line x1="700.0" y1="350.0" x2="725.0" y2="350.0"/>
<line x1="700.0" y1="400.0" x2="725.0" y2="400.0"/>
<line x1="725.0" y1="400.0" x2="725.0" y2="425.0"/>
<line x1="700.0" y1="450.0" x2="725.0" y2="450.0"/>
<line x1="725.0" y1="450.0" x2="725.0" y2="475.0"/>
<line x1="700.0" y1="500.0" x2="725.0" y2="500.0"/>
<line x1="725.0" y1="475.0" x2="725.0" y2="500.0"/>
<line x1="700.0" y1="525.0" x2="725.0" y2="525.0"/>
<line x1="725.0" y1="525.0" x2="725.0" y2="550.0"/>
<line x1="700.0" y1="575.0" x2="725.0" y2="575.0"/>
<line x1="700.0" y1="600.0" x2="725.0" y2="600.0"/>
<line x1="700.0" y1="625.0" x2="725.0" y2="625.0"/>
<line x1="725.0" y1="600.0" x2="725.0" y2="625.0"/>
<line x1="700.0" y1="650.0" x2="725.0" y2="650.0"/>
<line x1="700.0" y1="675.0" x2="725.0" y2="675.0"/>
<line x1="725.0" y1="650.0" x2="725.0" y2="675.0"/>
<line x1="725.0" y1="700.0" x2="725.0" y2="725.0"/>
<line x1="700.0" y1="750.0" x2="725.0" y2="750.0"/>
<line x1="725.0" y1="725.0" x2="725.0" y2="750.0"/>
<line x1="700.0" y1="800.0" x2="725.0" y2="800.0"/>
<line x1="725.0" y1="775.0" x2="725.0" y2="800.0"/>
<line x1="700.0" y1="825.0" x2="725.0" y2="825.0"/>
<line x1="700.0" y1="875.0" x2="725.0" y2="875.0"/>
<line x1="725.0" y1="850.0" x2="725.0" y2="875.0"/>
<line x1="725.0" y1="875.0" x2="725.0" y2="900.0"/>
<line x1="700.0" y1="925.0" x2="725.0" y2="925.0"/>
<line x1="725.0" y1="925.0" x2="725.0" y2="950.0"/>
<line x1="725.0" y1="950.0" x2="725.0" y2="975.0"/>
<line x1="700.0" y1="1000.0" x2="725.0" y2="1000.0"/>
<line x1="750.0" y1="25.0" x2="750.0" y2="50.0"/>
<line x1="725.0" y1="75.0" x2="750.0" y2="75.0"/>
<line x1="750.0" y1="50.0" x2="750.0" y2="75.0"/>
<line x1="725.0" y1="100.0" x2="750.0" y2="100.0"/>
<line x1="750.0" y1="100.0" x2="750.0" y2="125.0"/>
<line x1="750.0" y1="125.0" x2="750.0" y2="150.0"/>
<line x1="725.0" y1="175.0" x2="750.0" y2="175.0"/>
<line x1="725.0" y1="225.0" x2="750.0" y2="225.0"/>
<line x1="750.0" y1="200.0" x2="750.0" y2="225.0"/>
<line x1="725.0" y1="275.0" x2="750.0" y2="275.0"/>
<line x1="750.0" y1="275.0" x2="750.0" y2="300.0"/>
<line x1="725.0" y1="325.0" x2="750.0" y2="325.0"/>
<line x1="725.0" y1="350.0" x2="750.0" y2="350.0"/>
<circle cx="737.5" cy="337.5" r="10.0" fill="Red" />
<line x1="725.0" y1="375.0" x2="750.0" y2="375.0"/>
<line x1="750.0" y1="350.0" x2="750.0" y2="375.0"/>
<line x1="750.0" y1="375.0" x2="750.0" y2="400.0"/>
<line x1="725.0" y1="425.0" x2="750.0" y2="425.0"/>
<line x1="725.0" y1="450.0" x2="750.0" y2="450.0"/>
<line x1="725.0" y1="500.0" x2="750.0" y2="500.0"/>
<line x1="750.0" y1="500.0" x2="750.0" y2="525.0"/>
<line x1="725.0" y1="550.0" x2="750.0" y2="550.0"/>
<line x1="750.0" y1="550.0" x2="750.0" y2="575.0"/>
<line x1="750.0" y1="575.0" x2="750.0" y2="600.0"/>
<line x1="750.0" y1="600.0" x2="750.0" y2="625.0"/>
<line x1="725.0" y1="650.0" x2="750.0" y2="650.0"/>
<line x1="725.0" y1="700.0" x2="750.0" y2="700.0"/>
<line x1="750.0" y1="675.0" x2="750.0" y2="700.0"/>
<line x1="750.0" y1="725.0" x2="750.0" y2="750.0"/>
<line x1="750.0" y1="750.0" x2="750.0" y2="775.0"/>
<line x1="725.0" y1="800.0" x2="750.0" y2="800.0"/>
<line x1="725.0" y1="825.0" x2="750.0" y2="825.0"/>
<line x1="725.0" y1="850.0" x2="750.0" y2="850.0"/>
<line x1="750.0" y1="875.0" x2="750.0" y2="900.0"/>
<line x1="750.0" y1="900.0" x2="750.0" y2="925.0"/>
<line x1="725.0" y1="950.0" x2="750.0" y2="950.0"/>
<line x1="750.0" y1="925.0" x2="750.0" y2="950.0"/>
<line x1="725.0" y1="1000.0" x2="750.0" y2="1000.0"/>
<line x1="750.0" y1="975.0" x2="750.0" y2="1000.0"/>
<line x1="775.0" y1="25.0" x2="775.0" y2="50.0"/>
<line x1="750.0" y1="75.0" x2="775.0" y2="75.0"/>
<line x1="750.0" y1="100.0" x2="775.0" y2="100.0"/>
<line x1="775.0" y1="100.0" x2="775.0" y2="125.0"/>
<line x1="750.0" y1="150.0" x2="775.0" y2="150.0"/>
<line x1="750.0" y1="175.0" x2="775.0" y2="175.0"/>
<line x1="775.0" y1="175.0" x2="775.0" y2="200.0"/>
<line x1="775.0" y1="200.0" x2="775.0" y2="225.0"/>
<line x1="750.0" y1="250.0" x2="775.0" y2="250.0"/>
<line x1="775.0" y1="225.0" x2="775.0" y2="250.0"/>
<line x1="775.0" y1="250.0" x2="775.0" y2="275.0"/>
<line x1="775.0" y1="275.0" x2="775.0" y2="300.0"/>
<line x1="750.0" y1="325.0" x2="775.0" y2="325.0"/>
<line x1="775.0" y1="300.0" x2="775.0" y2="325.0"/>
<line x1="775.0" y1="325.0" x2="775.0" y2="350.0"/>
<line x1="750.0" y1="375.0" x2="775.0" y2="375.0"/>
<line x1="750.0" y1="425.0" x2="775.0" y2="425.0"/>
<line x1="775.0" y1="400.0" x2="775.0" y2="425.0"/>
<line x1="750.0" y1="450.0" x2="775.0" y2="450.0"/>
<line x1="750.0" y1="475.0" x2="775.0" y2="475.0"/>
<line x1="775.0" y1="475.0" x2="775.0" y2="500.0"/>
<line x1="750.0" y1="525.0" x2="775.0" y2="525.0"/>
<line x1="775.0" y1="525.0" x2="775.0" y2="550.0"/>
<line x1="750.0" y1="575.0" x2="775.0" y2="575.0"/>
<line x1="750.0" y1="600.0" x2="775.0" y2="600.0"/>
<line x1="750.0" y1="650.0" x2="775.0" y2="650.0"/>
<line x1="775.0" y1="625.0" x2="775.0" y2="650.0"/>
<line x1="775.0" y1="650.0" x2="775.0" y2="675.0"/>
<line x1="750.0" y1="700.0" x2="775.0" y2="700.0"/>
<line x1="750.0" y1="725.0" x2="775.0" y2="725.0"/>
<line x1="775.0" y1="750.0" x2="775.0" y2="775.0"/>
<line x1="750.0" y1="800.0" x2="775.0" y2="800.0"/>
<line x1="775.0" y1="800.0" x2="775.0" y2="825.0"/>
<line x1="750.0" y1="850.0" x2="775.0" y2="850.0"/>
<line x1="775.0" y1="825.0" x2="775.0" y2="850.0"/>
<line x1="775.0" y1="875.0" x2="775.0" y2="900.0"/>
<line x1="775.0" y1="900.0" x2="775.0" y2="925.0"/>
<line x1="750.0" y1="950.0" x2="775.0" y2="950.0"/>
<line x1="775.0" y1="950.0" x2="775.0" y2="975.0"/>
<line x1="750.0" y1="1000.0" x2="775.0" y2="1000.0"/>
<line x1="775.0" y1="25.0" x2="800.0" y2="25.0"/>
<line x1="775.0" y1="50.0" x2="800.0" y2="50.0"/>
<line x1="775.0" y1="75.0" x2="800.0" y2="75.0"/>
<line x1="800.0" y1="75.0" x2="800.0" y2="100.0"/>
<line x1="800.0" y1="100.0" x2="800.0" y2="125.0"/>
<line x1="775.0" y1="150.0" x2="800.0" y2="150.0"/>
<line x1="775.0" y1="175.0" x2="800.0" y2="175.0"/>
<line x1="775.0" y1="200.0" x2="800.0" y2="200.0"/>
<line x1="775.0" y1="250.0" x2="800.0" y2="250.0"/>
<line x1="800.0" y1="300.0" x2="800.0" y2="325.0"/>
<line x1="775.0" y1="350.0" x2="800.0" y2="350.0"/>
<line x1="800.0" y1="325.0" x2="800.0" y2="350.0"/>
<line x1="775.0" y1="375.0" x2="800.0" y2="375.0"/>
<line x1="775.0" y1="400.0" x2="800.0" y2="400.0"/>
<line x1="775.0" y1="450.0" x2="800.0" y2="450.0"/>
<line x1="800.0" y1="425.0" x2="800.0" y2="450.0"/>
<line x1="775.0" y1="475.0" x2="800.0" y2="475.0"/>
<line x1="800.0" y1="475.0" x2="800.0" y2="500.0"/>
<line x1="775.0" y1="525.0" x2="800.0" y2="525.0"/>
<line x1="800.0" y1="500.0" x2="800.0" y2="525.0"/>
<line x1="775.0" y1="575.0" x2="800.0" y2="575.0"/>
<line x1="800.0" y1="550.0" x2="800.0" y2="575.0"/>
<line x1="775.0" y1="625.0" x2="800.0" y2="625.0"/>
<line x1="800.0" y1="600.0" x2="800.0" y2="625.0"/>
<line x1="800.0" y1="650.0" x2="800.0" y2="675.0"/>
<line x1="775.0" y1="700.0" x2="800.0" y2="700.0"/>
<line x1="800.0" y1="675.0" x2="800.0" y2="700.0"/>
<line x1="775.0" y1="725.0" x2="800.0" y2="725.0"/>
<line x1="800.0" y1="700.0" x2="800.0" y2="725.0"/>
<line x1="775.0" y1="775.0" x2="800.0" y2="775.0"/>
<line x1="775.0" y1="800.0" x2="800.0" y2="800.0"/>
<line x1="775.0" y1="850.0" x2="800.0" y2="850.0"/>
<line x1="800.0" y1="850.0" x2="800.0" y2="875.0"/>
<line x1="775.0" y1="900.0" x2="800.0" y2="900.0"/>
<line x1="800.0" y1="925.0" x2="800.0" y2="950.0"/>
<circle cx="787.5" cy="937.5" r="10.0" fill="Red" />
<line x1="775.0" y1="975.0" x2="800.0" y2="975.0"/>
<line x1="800.0" y1="950.0" x2="800.0" y2="975.0"/>
<line x1="775.0" y1="1000.0" x2="800.0" y2="1000.0"/>
<line x1="800.0" y1="50.0" x2="825.0" y2="50.0"/>
<line x1="825.0" y1="25.0" x2="825.0" y2="50.0"/>
<line x1="825.0" y1="50.0" x2="825.0" y2="75.0"/>
<line x1="800.0" y1="100.0" x2="825.0" y2="100.0"/>
<line x1="800.0" y1="150.0" x2="825.0" y2="150.0"/>
<line x1="825.0" y1="125.0" x2="825.0" y2="150.0"/>
<line x1="800.0" y1="175.0" x2="825.0" y2="175.0"/>
<line x1="825.0" y1="175.0" x2="825.0" y2="200.0"/>
<line x1="800.0" y1="225.0" x2="825.0" y2="225.0"/>
<line x1="825.0" y1="200.0" x2="825.0" y2="225.0"/>
<line x1="825.0" y1="225.0" x2="825.0" y2="250.0"/>
<line x1="800.0" y1="275.0" x2="825.0" y2="275.0"/>
<line x1="825.0" y1="250.0" x2="825.0" y2="275.0"/>
<line x1="800.0" y1="325.0" x2="825.0" y2="325.0"/>
<line x1="800.0" y1="375.0" x2="825.0" y2="375.0"/>
<line x1="825.0" y1="350.0" x2="825.0" y2="375.0"/>
<line x1="825.0" y1="375.0" x2="825.0" y2="400.0"/>
<line x1="825.0" y1="400.0" x2="825.0" y2="425.0"/>
<line x1="825.0" y1="425.0" x2="825.0" y2="450.0"/>
<line x1="800.0" y1="475.0" x2="825.0" y2="475.0"/>
<line x1="825.0" y1="450.0" x2="825.0" y2="475.0"/>
<line x1="825.0" y1="500.0" x2="825.0" y2="525.0"/>
<line x1="800.0" y1="550.0" x2="825.0" y2="550.0"/>
<line x1="825.0" y1="525.0" x2="825.0" y2="550.0"/>
<line x1="800.0" y1="600.0" x2="825.0" y2="600.0"/>
<line x1="825.0" y1="575.0" x2="825.0" y2="600.0"/>
<line x1="800.0" y1="650.0" x2="825.0" y2="650.0"/>
<line x1="825.0" y1="625.0" x2="825.0" y2="650.0"/>
<line x1="825.0" y1="675.0" x2="825.0" y2="700.0"/>
<line x1="800.0" y1="725.0" x2="825.0" y2="725.0"/>
<line x1="800.0" y1="750.0" x2="825.0" y2="750.0"/>
<line x1="825.0" y1="725.0" x2="825.0" y2="750.0"/>
<line x1="800.0" y1="775.0" x2="825.0" y2="775.0"/>
<line x1="800.0" y1="800.0" x2="825.0" y2="800.0"/>
<line x1="825.0" y1="775.0" x2="825.0" y2="800.0"/>
<line x1="800.0" y1="825.0" x2="825.0" y2="825.0"/>
<line x1="825.0" y1="825.0" x2="825.0" y2="850.0"/>
<line x1="825.0" y1="850.0" x2="825.0" y2="875.0"/>
<line x1="800.0" y1="900.0" x2="825.0" y2="900.0"/>
<line x1="825.0" y1="875.0" x2="825.0" y2="900.0"/>
<line x1="825.0" y1="900.0" x2="825.0" y2="925.0"/>
<line x1="800.0" y1="950.0" x2="825.0" y2="950.0"/>
<line x1="800.0" y1="1000.0" x2="825.0" y2="1000.0"/>
<line x1="825.0" y1="975.0" x2="825.0" y2="1000.0"/>
<line x1="825.0" y1="25.0" x2="850.0" y2="25.0"/>
<line x1="850.0" y1="0.0" x2="850.0" y2="25.0"/>
<line x1="850.0" y1="50.0" x2="850.0" y2="75.0"/>
<line x1="825.0" y1="100.0" x2="850.0" y2="100.0"/>
<line x1="850.0" y1="75.0" x2="850.0" y2="100.0"/>
<line x1="850.0" y1="100.0" x2="850.0" y2="125.0"/>
<line x1="825.0" y1="150.0" x2="850.0" y2="150.0"/>
<line x1="850.0" y1="150.0" x2="850.0" y2="175.0"/>
<line x1="850.0" y1="175.0" x2="850.0" y2="200.0"/>
<line x1="850.0" y1="200.0" x2="850.0" y2="225.0"/>
<line x1="850.0" y1="225.0" x2="850.0" y2="250.0"/>
<line x1="825.0" y1="275.0" x2="850.0" y2="275.0"/>
<line x1="825.0" y1="300.0" x2="850.0" y2="300.0"/>
<line x1="850.0" y1="275.0" x2="850.0" y2="300.0"/>
<line x1="825.0" y1="325.0" x2="850.0" y2="325.0"/>
<line x1="850.0" y1="325.0" x2="850.0" y2="350.0"/>
<line x1="825.0" y1="375.0" x2="850.0" y2="375.0"/>
<line x1="850.0" y1="400.0" x2="850.0" y2="425.0"/>
<line x1="825.0" y1="450.0" x2="850.0" y2="450.0"/>
<circle cx="837.5" cy="462.5" r="10.0" fill="Red" />
<line x1="825.0" y1="500.0" x2="850.0" y2="500.0"/>
<line x1="850.0" y1="475.0" x2="850.0" y2="500.0"/>
<line x1="850.0" y1="500.0" x2="850.0" y2="525.0"/>
<line x1="850.0" y1="525.0" x2="850.0" y2="550.0"/>
<line x1="850.0" y1="550.0" x2="850.0" y2="575.0"/>
<line x1="825.0" y1="600.0" x2="850.0" y2="600.0"/>
<line x1="850.0" y1="575.0" x2="850.0" y2="600.0"/>
<line x1="825.0" y1="625.0" x2="850.0" y2="625.0"/>
<line x1="825.0" y1="675.0" x2="850.0" y2="675.0"/>
<line x1="850.0" y1="650.0" x2="850.0" y2="675.0"/>
<line x1="850.0" y1="675.0" x2="850.0" y2="700.0"/>
<line x1="850.0" y1="700.0" x2="850.0" y2="725.0"/>
<line x1="825.0" y1="750.0" x2="850.0" y2="750.0"/>
<line x1="825.0" y1="775.0" x2="850.0" y2="775.0"/>
<line x1="825.0" y1="825.0" x2="850.0" y2="825.0"/>
<line x1="850.0" y1="800.0" x2="850.0" y2="825.0"/>
<line x1="825.0" y1="900.0" x2="850.0" y2="900.0"/>
<line x1="825.0" y1="925.0" x2="850.0" y2="925.0"/>
<line x1="850.0" y1="925.0" x2="850.0" y2="950.0"/>
<line x1="825.0" y1="975.0" x2="850.0" y2="975.0"/>
<line x1="850.0" y1="950.0" x2="850.0" y2="975.0"/>
<line x1="825.0" y1="1000.0" x2="850.0" y2="1000.0"/>
<line x1="850.0" y1="50.0" x2="875.0" y2="50.0"/>
<line x1="875.0" y1="25.0" x2="875.0" y2="50.0"/>
<line x1="875.0" y1="50.0" x2="875.0" y2="75.0"/>
<line x1="875.0" y1="75.0" x2="875.0" y2="100.0"/>
<line x1="850.0" y1="125.0" x2="875.0" y2="125.0"/>
<line x1="875.0" y1="125.0" x2="875.0" y2="150.0"/>
<line x1="850.0" y1="175.0" x2="875.0" y2="175.0"/>
<line x1="850.0" y1="225.0" x2="875.0" y2="225.0"/>
<line x1="850.0" y1="250.0" x2="875.0" y2="250.0"/>
<line x1="875.0" y1="250.0" x2="875.0" y2="275.0"/>
<line x1="875.0" y1="275.0" x2="875.0" y2="300.0"/>
<line x1="850.0" y1="325.0" x2="875.0" y2="325.0"/>
<line x1="850.0" y1="350.0" x2="875.0" y2="350.0"/>
<line x1="850.0" y1="375.0" x2="875.0" y2="375.0"/>
<line x1="875.0" y1="375.0" x2="875.0" y2="400.0"/>
<line x1="850.0" y1="425.0" x2="875.0" y2="425.0"/>
<line x1="850.0" y1="450.0" x2="875.0" y2="450.0"/>
<line x1="875.0" y1="450.0" x2="875.0" y2="475.0"/>
<line x1="850.0" y1="500.0" x2="875.0" y2="500.0"/>
<line x1="850.0" y1="550.0" x2="875.0" y2="550.0"/>
<line x1="875.0" y1="575.0" x2="875.0" y2="600.0"/>
<line x1="850.0" y1="625.0" x2="875.0" y2="625.0"/>
<line x1="875.0" y1="600.0" x2="875.0" y2="625.0"/>
<line x1="850.0" y1="650.0" x2="875.0" y2="650.0"/>
<line x1="850.0" y1="700.0" x2="875.0" y2="700.0"/>
<line x1="875.0" y1="700.0" x2="875.0" y2="725.0"/>
<line x1="875.0" y1="725.0" x2="875.0" y2="750.0"/>
<line x1="850.0" y1="775.0" x2="875.0" y2="775.0"/>
<line x1="875.0" y1="775.0" x2="875.0" y2="800.0"/>
<line x1="850.0" y1="825.0" x2="875.0" y2="825.0"/>
<line x1="850.0" y1="850.0" x2="875.0" y2="850.0"/>
<line x1="875.0" y1="825.0" x2="875.0" y2="850.0"/>
<line x1="850.0" y1="875.0" x2="875.0" y2="875.0"/>
<line x1="875.0" y1="875.0" x2="875.0" y2="900.0"/>
<line x1="850.0" y1="925.0" x2="875.0" y2="925.0"/>
<line x1="875.0" y1="950.0" x2="875.0" y2="975.0"/>
<line x1="850.0" y1="1000.0" x2="875.0" y2="1000.0"/>
<line x1="900.0" y1="25.0" x2="900.0" y2="50.0"/>
<line x1="875.0" y1="75.0" x2="900.0" y2="75.0"/>
<line x1="900.0" y1="100.0" x2="900.0" y2="125.0"/>
<line x1="875.0" y1="150.0" x2="900.0" y2="150.0"/>
<line x1="900.0" y1="125.0" x2="900.0" y2="150.0"/>
<line x1="900.0" y1="150.0" x2="900.0" y2="175.0"/>
<line x1="875.0" y1="200.0" x2="900.0" y2="200.0"/>
<line x1="900.0" y1="175.0" x2="900.0" y2="200.0"/>
<line x1="875.0" y1="225.0" x2="900.0" y2="225.0"/>
<line x1="875.0" y1="275.0" x2="900.0" y2="275.0"/>
<line x1="875.0" y1="300.0" x2="900.0" y2="300.0"/>
<line x1="875.0" y1="325.0" x2="900.0" y2="325.0"/>
<line x1="875.0" y1="350.0" x2="900.0" y2="350.0"/>
<line x1="900.0" y1="350.0" x2="900.0" y2="375.0"/>
<line x1="900.0" y1="375.0" x2="900.0" y2="400.0"/>
<line x1="875.0" y1="425.0" x2="900.0" y2="425.0"/>
<line x1="900.0" y1="400.0" x2="900.0" y2="425.0"/>
<line x1="875.0" y1="475.0" x2="900.0" y2="475.0"/>
<line x1="900.0" y1="450.0" x2="900.0" y2="475.0"/>
<line x1="900.0" y1="475.0" x2="900.0" y2="500.0"/>
<line x1="875.0" y1="525.0" x2="900.0" y2="525.0"/>
<line x1="900.0" y1="500.0" x2="900.0" y2="525.0"/>
<line x1="875.0" y1="550.0" x2="900.0" y2="550.0"/>
<line x1="875.0" y1="575.0" x2="900.0" y2="575.0"/>
<line x1="875.0" y1="650.0" x2="900.0" y2="650.0"/>
<line x1="900.0" y1="625.0" x2="900.0" y2="650.0"/>
<line x1="875.0" y1="675.0" x2="900.0" y2="675.0"/>
<line x1="875.0" y1="700.0" x2="900.0" y2="700.0"/>
<line x1="875.0" y1="750.0" x2="900.0" y2="750.0"/>
<line x1="875.0" y1="775.0" x2="900.0" y2="775.0"/>
<line x1="875.0" y1="800.0" x2="900.0" y2="800.0"/>
<line x1="900.0" y1="800.0" x2="900.0" y2="825.0"/>
<line x1="875.0" y1="850.0" x2="900.0" y2="850.0"/>
<line x1="875.0" y1="875.0" x2="900.0" y2="875.0"/>
<line x1="900.0" y1="875.0" x2="900.0" y2="900.0"/>
<line x1="875.0" y1="925.0" x2="900.0" y2="925.0"/>
<line x1="900.0" y1="900.0" x2="900.0" y2="925.0"/>
<line x1="875.0" y1="950.0" x2="900.0" y2="950.0"/>
<line x1="875.0" y1="1000.0" x2="900.0" y2="1000.0"/>
<line x1="900.0" y1="975.0" x2="900.0" y2="1000.0"/>
<line x1="925.0" y1="0.0" x2="925.0" y2="25.0"/>
<line x1="900.0" y1="50.0" x2="925.0" y2="50.0"/>
<line x1="900.0" y1="75.0" x2="925.0" y2="75.0"/>
<line x1="925.0" y1="75.0" x2="925.0" y2="100.0"/>
<line x1="925.0" y1="100.0" x2="925.0" y2="125.0"/>
<line x1="925.0" y1="125.0" x2="925.0" y2="150.0"/>
<line x1="925.0" y1="150.0" x2="925.0" y2="175.0"/>
<line x1="925.0" y1="175.0" x2="925.0" y2="200.0"/>
<line x1="925.0" y1="200.0" x2="925.0" y2="225.0"/>
<line x1="900.0" y1="250.0" x2="925.0" y2="250.0"/>
<line x1="925.0" y1="225.0" x2="925.0" y2="250.0"/>
<line x1="900.0" y1="275.0" x2="925.0" y2="275.0"/>
<line x1="900.0" y1="300.0" x2="925.0" y2="300.0"/>
<line x1="900.0" y1="325.0" x2="925.0" y2="325.0"/>
<line x1="925.0" y1="350.0" x2="925.0" y2="375.0"/>
<line x1="900.0" y1="425.0" x2="925.0" y2="425.0"/>
<line x1="925.0" y1="400.0" x2="925.0" y2="425.0"/>
<line x1="900.0" y1="450.0" x2="925.0" y2="450.0"/>
<line x1="925.0" y1="475.0" x2="925.0" y2="500.0"/>
<line x1="900.0" y1="525.0" x2="925.0" y2="525.0"/>
<line x1="900.0" y1="550.0" x2="925.0" y2="550.0"/>
<line x1="900.0" y1="575.0" x2="925.0" y2="575.0"/>
<line x1="900.0" y1="600.0" x2="925.0" y2="600.0"/>
<line x1="900.0" y1="625.0" x2="925.0" y2="625.0"/>
<line x1="925.0" y1="600.0" x2="925.0" y2="625.0"/>
<line x1="900.0" y1="675.0" x2="925.0" y2="675.0"/>
<line x1="925.0" y1="650.0" x2="925.0" y2="675.0"/>
<line x1="900.0" y1="700.0" x2="925.0" y2="700.0"/>
<line x1="900.0" y1="725.0" x2="925.0" y2="725.0"/>
<line x1="900.0" y1="750.0" x2="925.0" y2="750.0"/>
<line x1="925.0" y1="750.0" x2="925.0" y2="775.0"/>
<line x1="925.0" y1="775.0" x2="925.0" y2="800.0"/>
<line x1="900.0" y1="825.0" x2="925.0" y2="825.0"/>
<line x1="900.0" y1="850.0" x2="925.0" y2="850.0"/>
<line x1="925.0" y1="850.0" x2="925.0" y2="875.0"/>
<line x1="925.0" y1="875.0" x2="925.0" y2="900.0"/>
<line x1="900.0" y1="950.0" x2="925.0" y2="950.0"/>
<line x1="925.0" y1="925.0" x2="925.0" y2="950.0"/>
<line x1="925.0" y1="950.0" x2="925.0" y2="975.0"/>
<line x1="900.0" y1="1000.0" x2="925.0" y2="1000.0"/>
<line x1="925.0" y1="50.0" x2="950.0" y2="50.0"/>
<line x1="950.0" y1="25.0" x2="950.0" y2="50.0"/>
<line x1="950.0" y1="50.0" x2="950.0" y2="75.0"/>
<line x1="950.0" y1="75.0" x2="950.0" y2="100.0"/>
<line x1="950.0" y1="100.0" x2="950.0" y2="125.0"/>
<line x1="950.0" y1="125.0" x2="950.0" y2="150.0"/>
<line x1="925.0" y1="175.0" x2="950.0" y2="175.0"/>
<line x1="950.0" y1="200.0" x2="950.0" y2="225.0"/>
<line x1="925.0" y1="250.0" x2="950.0" y2="250.0"/>
<line x1="950.0" y1="250.0" x2="950.0" y2="275.0"/>
<line x1="925.0" y1="300.0" x2="950.0" y2="300.0"/>
<line x1="950.0" y1="275.0" x2="950.0" y2="300.0"/>
<line x1="925.0" y1="325.0" x2="950.0" y2="325.0"/>
<line x1="925.0" y1="350.0" x2="950.0" y2="350.0"/>
<line x1="950.0" y1="325.0" x2="950.0" y2="350.0"/>
<line x1="925.0" y1="400.0" x2="950.0" y2="400.0"/>
<line x1="925.0" y1="450.0" x2="950.0" y2="450.0"/>
<line x1="950.0" y1="425.0" x2="950.0" y2="450.0"/>
<line x1="925.0" y1="475.0" x2="950.0" y2="475.0"/>
<line x1="925.0" y1="525.0" x2="950.0" y2="525.0"/>
<line x1="950.0" y1="525.0" x2="950.0" y2="550.0"/>
<line x1="925.0" y1="575.0" x2="950.0" y2="575.0"/>
<line x1="950.0" y1="550.0" x2="950.0" y2="575.0"/>
<line x1="925.0" y1="600.0" x2="950.0" y2="600.0"/>
<line x1="925.0" y1="650.0" x2="950.0" y2="650.0"/>
<line x1="950.0" y1="625.0" x2="950.0" y2="650.0"/>
<line x1="925.0" y1="675.0" x2="950.0" y2="675.0"/>
<line x1="950.0" y1="675.0" x2="950.0" y2="700.0"/>
<line x1="925.0" y1="725.0" x2="950.0" y2="725.0"/>
<line x1="950.0" y1="700.0" x2="950.0" y2="725.0"/>
<line x1="950.0" y1="725.0" x2="950.0" y2="750.0"/>
<line x1="950.0" y1="750.0" x2="950.0" y2="775.0"/>
<line x1="925.0" y1="800.0" x2="950.0" y2="800.0"/>
<line x1="925.0" y1="825.0" x2="950.0" y2="825.0"/>
<line x1="950.0" y1="800.0" x2="950.0" y2="825.0"/>
<line x1="950.0" y1="825.0" x2="950.0" y2="850.0"/>
<line x1="950.0" y1="850.0" x2="950.0" y2="875.0"/>
<line x1="925.0" y1="900.0" x2="950.0" y2="900.0"/>
<line x1="950.0" y1="900.0" x2="950.0" y2="925.0"/>
<line x1="950.0" y1="925.0" x2="950.0" y2="950.0"/>
<line x1="925.0" y1="975.0" x2="950.0" y2="975.0"/>
<line x1="950.0" y1="950.0" x2="950.0" y2="975.0"/>
<line x1="925.0" y1="1000.0" x2="950.0" y2="1000.0"/>
<line x1="975.0" y1="0.0" x2="975.0" y2="25.0"/>
<line x1="975.0" y1="25.0" x2="975.0" y2="50.0"/>
<line x1="950.0" y1="75.0" x2="975.0" y2="75.0"/>
<line x1="950.0" y1="100.0" x2="975.0" y2="100.0"/>
<line x1="975.0" y1="125.0" x2="975.0" y2="150.0"/>
<line x1="950.0" y1="175.0" x2="975.0" y2="175.0"/>
<line x1="975.0" y1="150.0" x2="975.0" y2="175.0"/>
<line x1="975.0" y1="175.0" x2="975.0" y2="200.0"/>
<line x1="950.0" y1="225.0" x2="975.0" y2="225.0"/>
<line x1="975.0" y1="225.0" x2="975.0" y2="250.0"/>
<line x1="975.0" y1="250.0" x2="975.0" y2="275.0"/>
<line x1="950.0" y1="300.0" x2="975.0" y2="300.0"/>
<line x1="950.0" y1="325.0" x2="975.0" y2="325.0"/>
<line x1="950.0" y1="375.0" x2="975.0" y2="375.0"/>
<line x1="975.0" y1="350.0" x2="975.0" y2="375.0"/>
<line x1="950.0" y1="400.0" x2="975.0" y2="400.0"/>
<line x1="975.0" y1="400.0" x2="975.0" y2="425.0"/>
<line x1="975.0" y1="425.0" x2="975.0" y2="450.0"/>
<line x1="950.0" y1="475.0" x2="975.0" y2="475.0"/>
<line x1="975.0" y1="450.0" x2="975.0" y2="475.0"/>
<line x1="950.0" y1="500.0" x2="975.0" y2="500.0"/>
<line x1="975.0" y1="500.0" x2="975.0" y2="525.0"/>
<line x1="975.0" y1="525.0" x2="975.0" y2="550.0"/>
<line x1="950.0" y1="575.0" x2="975.0" y2="575.0"/>
<line x1="975.0" y1="550.0" x2="975.0" y2="575.0"/>
<line x1="950.0" y1="625.0" x2="975.0" y2="625.0"/>
<line x1="975.0" y1="600.0" x2="975.0" y2="625.0"/>
<line x1="975.0" y1="625.0" x2="975.0" y2="650.0"/>
<line x1="975.0" y1="650.0" x2="975.0" y2="675.0"/>
<line x1="950.0" y1="725.0" x2="975.0" y2="725.0"/>
<line x1="975.0" y1="750.0" x2="975.0" y2="775.0"/>
<line x1="950.0" y1="800.0" x2="975.0" y2="800.0"/>
<line x1="975.0" y1="775.0" x2="975.0" y2="800.0"/>
<line x1="950.0" y1="875.0" x2="975.0" y2="875.0"/>
<line x1="975.0" y1="850.0" x2="975.0" y2="875.0"/>
<line x1="975.0" y1="875.0" x2="975.0" y2="900.0"/>
<line x1="975.0" y1="900.0" x2="975.0" y2="925.0"/>
<line x1="975.0" y1="925.0" x2="975.0" y2="950.0"/>
<line x1="975.0" y1="950.0" x2="975.0" y2="975.0"/>
<line x1="950.0" y1="1000.0" x2="975.0" y2="1000.0"/>
<line x1="1000.0" y1="0.0" x2="1000.0" y2="25.0"/>
<line x1="1000.0" y1="25.0" x2="1000.0" y2="50.0"/>
<line x1="1000.0" y1="50.0" x2="1000.0" y2="75.0"/>
<line x1="975.0" y1="100.0" x2="1000.0" y2="100.0"/>
<line x1="1000.0" y1="75.0" x2="1000.0" y2="100.0"/>
<line x1="1000.0" y1="100.0" x2="1000.0" y2="125.0"/>
<line x1="1000.0" y1="125.0" x2="1000.0" y2="150.0"/>
<line x1="1000.0" y1="150.0" x2="1000.0" y2="175.0"/>
<line x1="1000.0" y1="175.0" x2="1000.0" y2="200.0"/>
<line x1="1000.0" y1="200.0" x2="1000.0" y2="225.0"/>
<line x1="1000.0" y1="225.0" x2="1000.0" y2="250.0"/>
<line x1="975.0" y1="275.0" x2="1000.0" y2="275.0"/>
<line x1="1000.0" y1="250.0" x2="1000.0" y2="275.0"/>
<line x1="1000.0" y1="275.0" x2="1000.0" y2="300.0"/>
<circle cx="987.5" cy="287.5" r="10.0" fill="Red" />
<line x1="1000.0" y1="300.0" x2="1000.0" y2="325.0"/>
<line x1="975.0" y1="350.0" x2="1000.0" y2="350.0"/>
<line x1="1000.0" y1="325.0" x2="1000.0" y2="350.0"/>
<line x1="1000.0" y1="350.0" x2="1000.0" y2="375.0"/>
<line x1="1000.0" y1="375.0" x2="1000.0" y2="400.0"/>
<line x1="1000.0" y1="400.0" x2="1000.0" y2="425.0"/>
<line x1="1000.0" y1="425.0" x2="1000.0" y2="450.0"/>
<line x1="975.0" y1="475.0" x2="1000.0" y2="475.0"/>
<line x1="1000.0" y1="450.0" x2="1000.0" y2="475.0"/>
<line x1="1000.0" y1="475.0" x2="1000.0" y2="500.0"/>
<line x1="1000.0" y1="500.0" x2="1000.0" y2="525.0"/>
<line x1="1000.0" y1="525.0" x2="1000.0" y2="550.0"/>
<line x1="1000.0" y1="550.0" x2="1000.0" y2="575.0"/>
<line x1="1000.0" y1="575.0" x2="1000.0" y2="600.0"/>
<line x1="1000.0" y1="600.0" x2="1000.0" y2="625.0"/>
<line x1="1000.0" y1="625.0" x2="1000.0" y2="650.0"/>
<line x1="1000.0" y1="650.0" x2="1000.0" y2="675.0"/>
<line x1="975.0" y1="700.0" x2="1000.0" y2="700.0"/>
<line x1="1000.0" y1="675.0" x2="1000.0" y2="700.0"/>
<line x1="975.0" y1="725.0" x2="1000.0" y2="725.0"/>
<line x1="1000.0" y1="700.0" x2="1000.0" y2="725.0"/>
<line x1="1000.0" y1="725.0" x2="1000.0" y2="750.0"/>
<line x1="1000.0" y1="750.0" x2="1000.0" y2="775.0"/>
<line x1="1000.0" y1="775.0" x2="1000.0" y2="800.0"/>
<line x1="975.0" y1="825.0" x2="1000.0" y2="825.0"/>
<line x1="1000.0" y1="800.0" x2="1000.0" y2="825.0"/>
<line x1="1000.0" y1="825.0" x2="1000.0" y2="850.0"/>
<line x1="1000.0" y1="850.0" x2="1000.0" y2="875.0"/>
<line x1="1000.0" y1="875.0" x2="1000.0" y2="900.0"/>
<line x1="1000.0" y1="900.0" x2="1000.0" y2="925.0"/>
<line x1="1000.0" y1="925.0" x2="1000.0" y2="950.0"/>
<line x1="1000.0" y1="950.0" x2="1000.0" y2="975.0"/>
<line x1="975.0" y1="1000.0" x2="1000.0" y2="1000.0"/>
<line x1="1000.0" y1="975.0" x2="1000.0" y2="1000.0"/>
<line x1="0" y1="0" x2="1000" y2="0"/>
<line x1="0" y1="0" x2="0" y2="1000"/>
</svg>
